ISO-10303-21;
HEADER;
/* Generated by software containing ST-Developer
 * from STEP Tools, Inc. (www.steptools.com) 
 */

FILE_DESCRIPTION(
/* description */ (''),
/* implementation_level */ '2;1');

FILE_NAME(
/* name */ 'Left Ear Panel.step',
/* time_stamp */ '2026-02-26T14:38:45-05:00',
/* author */ (''),
/* organization */ (''),
/* preprocessor_version */ 'ST-DEVELOPER v20.1',
/* originating_system */ 'Autodesk Translation Framework v14.24.0.0',
/* authorisation */ '');

FILE_SCHEMA (('AUTOMOTIVE_DESIGN { 1 0 10303 214 3 1 1 }'));
ENDSEC;

DATA;
#10=MECHANICAL_DESIGN_GEOMETRIC_PRESENTATION_REPRESENTATION('',(#13),#306);
#11=SHAPE_REPRESENTATION_RELATIONSHIP('SRR','None',#313,#12);
#12=ADVANCED_BREP_SHAPE_REPRESENTATION('',(#14),#305);
#13=STYLED_ITEM('',(#323),#14);
#14=MANIFOLD_SOLID_BREP('Body1',#185);
#15=FACE_OUTER_BOUND('',#25,.T.);
#16=FACE_OUTER_BOUND('',#26,.T.);
#17=FACE_OUTER_BOUND('',#27,.T.);
#18=FACE_OUTER_BOUND('',#28,.T.);
#19=FACE_OUTER_BOUND('',#29,.T.);
#20=FACE_OUTER_BOUND('',#30,.T.);
#21=FACE_OUTER_BOUND('',#31,.T.);
#22=FACE_OUTER_BOUND('',#32,.T.);
#23=FACE_OUTER_BOUND('',#33,.T.);
#24=FACE_OUTER_BOUND('',#34,.T.);
#25=EDGE_LOOP('',(#119,#120,#121,#122,#123));
#26=EDGE_LOOP('',(#124,#125,#126,#127,#128));
#27=EDGE_LOOP('',(#129,#130,#131,#132));
#28=EDGE_LOOP('',(#133,#134,#135,#136,#137));
#29=EDGE_LOOP('',(#138,#139,#140,#141,#142));
#30=EDGE_LOOP('',(#143,#144,#145,#146,#147));
#31=EDGE_LOOP('',(#148,#149,#150,#151));
#32=EDGE_LOOP('',(#152,#153,#154,#155));
#33=EDGE_LOOP('',(#156,#157,#158,#159));
#34=EDGE_LOOP('',(#160,#161,#162,#163,#164));
#35=LINE('',#258,#58);
#36=LINE('',#260,#59);
#37=LINE('',#262,#60);
#38=LINE('',#264,#61);
#39=LINE('',#265,#62);
#40=LINE('',#268,#63);
#41=LINE('',#270,#64);
#42=LINE('',#272,#65);
#43=LINE('',#273,#66);
#44=LINE('',#276,#67);
#45=LINE('',#278,#68);
#46=LINE('',#279,#69);
#47=LINE('',#282,#70);
#48=LINE('',#283,#71);
#49=LINE('',#286,#72);
#50=LINE('',#288,#73);
#51=LINE('',#289,#74);
#52=LINE('',#292,#75);
#53=LINE('',#293,#76);
#54=LINE('',#295,#77);
#55=LINE('',#298,#78);
#56=LINE('',#299,#79);
#57=LINE('',#301,#80);
#58=VECTOR('',#213,10.);
#59=VECTOR('',#214,10.);
#60=VECTOR('',#215,10.);
#61=VECTOR('',#216,10.);
#62=VECTOR('',#217,10.);
#63=VECTOR('',#220,10.);
#64=VECTOR('',#221,10.);
#65=VECTOR('',#222,10.);
#66=VECTOR('',#223,10.);
#67=VECTOR('',#226,10.);
#68=VECTOR('',#227,10.);
#69=VECTOR('',#228,10.);
#70=VECTOR('',#231,10.);
#71=VECTOR('',#232,10.);
#72=VECTOR('',#235,10.);
#73=VECTOR('',#236,10.);
#74=VECTOR('',#237,10.);
#75=VECTOR('',#240,10.);
#76=VECTOR('',#241,10.);
#77=VECTOR('',#244,10.);
#78=VECTOR('',#247,10.);
#79=VECTOR('',#248,10.);
#80=VECTOR('',#251,10.);
#81=VERTEX_POINT('',#256);
#82=VERTEX_POINT('',#257);
#83=VERTEX_POINT('',#259);
#84=VERTEX_POINT('',#261);
#85=VERTEX_POINT('',#263);
#86=VERTEX_POINT('',#267);
#87=VERTEX_POINT('',#269);
#88=VERTEX_POINT('',#271);
#89=VERTEX_POINT('',#275);
#90=VERTEX_POINT('',#277);
#91=VERTEX_POINT('',#281);
#92=VERTEX_POINT('',#285);
#93=VERTEX_POINT('',#287);
#94=VERTEX_POINT('',#291);
#95=VERTEX_POINT('',#297);
#96=EDGE_CURVE('',#81,#82,#35,.T.);
#97=EDGE_CURVE('',#83,#82,#36,.T.);
#98=EDGE_CURVE('',#84,#83,#37,.T.);
#99=EDGE_CURVE('',#85,#84,#38,.T.);
#100=EDGE_CURVE('',#81,#85,#39,.T.);
#101=EDGE_CURVE('',#86,#82,#40,.T.);
#102=EDGE_CURVE('',#87,#86,#41,.T.);
#103=EDGE_CURVE('',#88,#87,#42,.T.);
#104=EDGE_CURVE('',#83,#88,#43,.T.);
#105=EDGE_CURVE('',#86,#89,#44,.T.);
#106=EDGE_CURVE('',#90,#89,#45,.T.);
#107=EDGE_CURVE('',#87,#90,#46,.T.);
#108=EDGE_CURVE('',#91,#81,#47,.T.);
#109=EDGE_CURVE('',#89,#91,#48,.T.);
#110=EDGE_CURVE('',#90,#92,#49,.T.);
#111=EDGE_CURVE('',#92,#93,#50,.T.);
#112=EDGE_CURVE('',#93,#88,#51,.T.);
#113=EDGE_CURVE('',#94,#91,#52,.T.);
#114=EDGE_CURVE('',#94,#92,#53,.T.);
#115=EDGE_CURVE('',#85,#94,#54,.T.);
#116=EDGE_CURVE('',#84,#95,#55,.T.);
#117=EDGE_CURVE('',#95,#94,#56,.T.);
#118=EDGE_CURVE('',#95,#93,#57,.T.);
#119=ORIENTED_EDGE('',*,*,#96,.T.);
#120=ORIENTED_EDGE('',*,*,#97,.F.);
#121=ORIENTED_EDGE('',*,*,#98,.F.);
#122=ORIENTED_EDGE('',*,*,#99,.F.);
#123=ORIENTED_EDGE('',*,*,#100,.F.);
#124=ORIENTED_EDGE('',*,*,#101,.F.);
#125=ORIENTED_EDGE('',*,*,#102,.F.);
#126=ORIENTED_EDGE('',*,*,#103,.F.);
#127=ORIENTED_EDGE('',*,*,#104,.F.);
#128=ORIENTED_EDGE('',*,*,#97,.T.);
#129=ORIENTED_EDGE('',*,*,#105,.T.);
#130=ORIENTED_EDGE('',*,*,#106,.F.);
#131=ORIENTED_EDGE('',*,*,#107,.F.);
#132=ORIENTED_EDGE('',*,*,#102,.T.);
#133=ORIENTED_EDGE('',*,*,#101,.T.);
#134=ORIENTED_EDGE('',*,*,#96,.F.);
#135=ORIENTED_EDGE('',*,*,#108,.F.);
#136=ORIENTED_EDGE('',*,*,#109,.F.);
#137=ORIENTED_EDGE('',*,*,#105,.F.);
#138=ORIENTED_EDGE('',*,*,#103,.T.);
#139=ORIENTED_EDGE('',*,*,#107,.T.);
#140=ORIENTED_EDGE('',*,*,#110,.T.);
#141=ORIENTED_EDGE('',*,*,#111,.T.);
#142=ORIENTED_EDGE('',*,*,#112,.T.);
#143=ORIENTED_EDGE('',*,*,#109,.T.);
#144=ORIENTED_EDGE('',*,*,#113,.F.);
#145=ORIENTED_EDGE('',*,*,#114,.T.);
#146=ORIENTED_EDGE('',*,*,#110,.F.);
#147=ORIENTED_EDGE('',*,*,#106,.T.);
#148=ORIENTED_EDGE('',*,*,#108,.T.);
#149=ORIENTED_EDGE('',*,*,#100,.T.);
#150=ORIENTED_EDGE('',*,*,#115,.T.);
#151=ORIENTED_EDGE('',*,*,#113,.T.);
#152=ORIENTED_EDGE('',*,*,#99,.T.);
#153=ORIENTED_EDGE('',*,*,#116,.T.);
#154=ORIENTED_EDGE('',*,*,#117,.T.);
#155=ORIENTED_EDGE('',*,*,#115,.F.);
#156=ORIENTED_EDGE('',*,*,#111,.F.);
#157=ORIENTED_EDGE('',*,*,#114,.F.);
#158=ORIENTED_EDGE('',*,*,#117,.F.);
#159=ORIENTED_EDGE('',*,*,#118,.T.);
#160=ORIENTED_EDGE('',*,*,#104,.T.);
#161=ORIENTED_EDGE('',*,*,#112,.F.);
#162=ORIENTED_EDGE('',*,*,#118,.F.);
#163=ORIENTED_EDGE('',*,*,#116,.F.);
#164=ORIENTED_EDGE('',*,*,#98,.T.);
#165=PLANE('',#199);
#166=PLANE('',#200);
#167=PLANE('',#201);
#168=PLANE('',#202);
#169=PLANE('',#203);
#170=PLANE('',#204);
#171=PLANE('',#205);
#172=PLANE('',#206);
#173=PLANE('',#207);
#174=PLANE('',#208);
#175=ADVANCED_FACE('',(#15),#165,.F.);
#176=ADVANCED_FACE('',(#16),#166,.F.);
#177=ADVANCED_FACE('',(#17),#167,.T.);
#178=ADVANCED_FACE('',(#18),#168,.F.);
#179=ADVANCED_FACE('',(#19),#169,.T.);
#180=ADVANCED_FACE('',(#20),#170,.T.);
#181=ADVANCED_FACE('',(#21),#171,.T.);
#182=ADVANCED_FACE('',(#22),#172,.T.);
#183=ADVANCED_FACE('',(#23),#173,.T.);
#184=ADVANCED_FACE('',(#24),#174,.T.);
#185=CLOSED_SHELL('',(#175,#176,#177,#178,#179,#180,#181,#182,#183,#184));
#186=DERIVED_UNIT_ELEMENT(#188,1.);
#187=DERIVED_UNIT_ELEMENT(#308,-3.);
#188=(
MASS_UNIT()
NAMED_UNIT(*)
SI_UNIT(.KILO.,.GRAM.)
);
#189=DERIVED_UNIT((#186,#187));
#190=MEASURE_REPRESENTATION_ITEM('density measure',
POSITIVE_RATIO_MEASURE(7850.),#189);
#191=PROPERTY_DEFINITION_REPRESENTATION(#196,#193);
#192=PROPERTY_DEFINITION_REPRESENTATION(#197,#194);
#193=REPRESENTATION('material name',(#195),#305);
#194=REPRESENTATION('density',(#190),#305);
#195=DESCRIPTIVE_REPRESENTATION_ITEM('Steel','Steel');
#196=PROPERTY_DEFINITION('material property','material name',#315);
#197=PROPERTY_DEFINITION('material property','density of part',#315);
#198=AXIS2_PLACEMENT_3D('',#254,#209,#210);
#199=AXIS2_PLACEMENT_3D('',#255,#211,#212);
#200=AXIS2_PLACEMENT_3D('',#266,#218,#219);
#201=AXIS2_PLACEMENT_3D('',#274,#224,#225);
#202=AXIS2_PLACEMENT_3D('',#280,#229,#230);
#203=AXIS2_PLACEMENT_3D('',#284,#233,#234);
#204=AXIS2_PLACEMENT_3D('',#290,#238,#239);
#205=AXIS2_PLACEMENT_3D('',#294,#242,#243);
#206=AXIS2_PLACEMENT_3D('',#296,#245,#246);
#207=AXIS2_PLACEMENT_3D('',#300,#249,#250);
#208=AXIS2_PLACEMENT_3D('',#302,#252,#253);
#209=DIRECTION('axis',(0.,0.,1.));
#210=DIRECTION('refdir',(1.,0.,0.));
#211=DIRECTION('center_axis',(0.831795329668218,0.,0.555082452922213));
#212=DIRECTION('ref_axis',(0.555082452922213,0.,-0.831795329668218));
#213=DIRECTION('',(0.555082452922213,0.,-0.831795329668218));
#214=DIRECTION('',(0.,1.,0.));
#215=DIRECTION('',(0.555082452922213,0.,-0.831795329668218));
#216=DIRECTION('',(0.55140899195836,-0.114856147740105,-0.826290620129364));
#217=DIRECTION('',(0.144144119940586,-0.965694573295181,-0.216001073596388));
#218=DIRECTION('center_axis',(0.273640889640042,0.,0.961831931013421));
#219=DIRECTION('ref_axis',(0.961831931013421,0.,-0.273640889640042));
#220=DIRECTION('',(-0.961831931013421,0.,0.273640889640042));
#221=DIRECTION('',(0.196622975858056,0.978882124625115,-0.0559391763806188));
#222=DIRECTION('',(0.951346466319245,0.147255791567225,-0.2706577781476));
#223=DIRECTION('',(0.961831931013421,0.,-0.273640889640042));
#224=DIRECTION('center_axis',(0.944163470937855,-0.17364817766693,0.280002947376517));
#225=DIRECTION('ref_axis',(0.284322444172559,0.,-0.958728714360711));
#226=DIRECTION('',(-0.284322444172559,0.,0.958728714360711));
#227=DIRECTION('',(0.156108295238265,0.984165759348057,0.0839521190004453));
#228=DIRECTION('',(-0.284322444172559,0.,0.958728714360711));
#229=DIRECTION('center_axis',(0.,-1.,0.));
#230=DIRECTION('ref_axis',(1.,0.,0.));
#231=DIRECTION('',(-0.126336660261238,0.,-0.991987423445498));
#232=DIRECTION('',(-0.64309121592837,0.,0.765789584674387));
#233=DIRECTION('center_axis',(0.166481494125696,-0.984807753012208,0.0493720743003725));
#234=DIRECTION('ref_axis',(0.,-0.0500708338580916,-0.998745669125406));
#235=DIRECTION('',(-0.651108998348989,-0.0721916195595462,0.755543143926504));
#236=DIRECTION('',(-0.867883936403811,-0.17011455063574,-0.466731735147961));
#237=DIRECTION('',(0.284322444172559,0.,-0.958728714360711));
#238=DIRECTION('center_axis',(0.754155520163335,-0.173648177666931,0.633321215340307));
#239=DIRECTION('ref_axis',(0.64309121592837,0.,-0.765789584674387));
#240=DIRECTION('',(-0.113531441574476,0.915407891955486,0.386185192776257));
#241=DIRECTION('',(0.64309121592837,0.,-0.765789584674387));
#242=DIRECTION('center_axis',(-0.97691690549973,-0.173648177666931,0.124417322514937));
#243=DIRECTION('ref_axis',(0.126336660261238,0.,0.991987423445498));
#244=DIRECTION('',(0.126336660261238,-3.52296876353958E-18,0.991987423445498));
#245=DIRECTION('center_axis',(-0.172256808349824,-0.984807753012208,0.0219381308268901));
#246=DIRECTION('ref_axis',(0.,-0.0222710365944462,-0.999751969704991));
#247=DIRECTION('',(0.126336660261238,0.,0.991987423445497));
#248=DIRECTION('',(-0.281344028999371,0.07052997736571,0.957011525342926));
#249=DIRECTION('center_axis',(0.132977965855023,-0.984807753012208,0.111671617719572));
#250=DIRECTION('ref_axis',(0.,-0.11267226072437,-0.993632206434181));
#251=DIRECTION('',(0.64309121592837,0.,-0.765789584674387));
#252=DIRECTION('center_axis',(0.,-1.,0.));
#253=DIRECTION('ref_axis',(0.,0.,-1.));
#254=CARTESIAN_POINT('',(0.,0.,0.));
#255=CARTESIAN_POINT('Origin',(-41.720319023003,-15.,91.4921644152676));
#256=CARTESIAN_POINT('',(-41.0005511639692,-13.,90.4135867365142));
#257=CARTESIAN_POINT('',(6.96174178762706,-13.,18.5417214536328));
#258=CARTESIAN_POINT('',(-53.7549050466466,-13.,109.526084234311));
#259=CARTESIAN_POINT('',(6.96174178762706,-15.,18.5417214536328));
#260=CARTESIAN_POINT('',(6.96174178762706,-15.,18.5417214536328));
#261=CARTESIAN_POINT('',(-34.9481411569981,-15.,81.3440037393712));
#262=CARTESIAN_POINT('',(-26.3172822975594,-15.,68.4105952835417));
#263=CARTESIAN_POINT('',(-40.8866573646006,-13.7630323319992,90.2429160012131));
#264=CARTESIAN_POINT('',(-38.4395121484315,-14.2727622721867,86.5758500525177));
#265=CARTESIAN_POINT('',(-41.0560430363297,-12.6282318000715,90.4967417345169));
#266=CARTESIAN_POINT('Origin',(6.96174178762706,-15.,18.5417214536328));
#267=CARTESIAN_POINT('',(24.2032897642761,-13.,13.6365063375879));
#268=CARTESIAN_POINT('',(-2.86025826128955,-13.,21.3360774578031));
#269=CARTESIAN_POINT('',(24.0982799754954,-13.5227883704817,13.6663815903179));
#270=CARTESIAN_POINT('',(23.9077381931536,-14.4713954389819,13.7205906690066));
#271=CARTESIAN_POINT('',(14.5547499805723,-15.,16.3815129494584));
#272=CARTESIAN_POINT('',(7.333340763116,-16.1177781893295,18.4360016589749));
#273=CARTESIAN_POINT('',(-2.86025826128955,-15.,21.3360774578031));
#274=CARTESIAN_POINT('Origin',(21.9958206875721,-9.3287181803823,23.3568435291363));
#275=CARTESIAN_POINT('',(17.9734541523929,-13.,34.643368121719));
#276=CARTESIAN_POINT('',(3.62467165051296,-13.,83.0271312843618));
#277=CARTESIAN_POINT('',(17.8905295022401,-13.5227883704817,34.5987727971268));
#278=CARTESIAN_POINT('',(18.3775163215741,-10.45263920185,34.8606651926972));
#279=CARTESIAN_POINT('',(16.6960164493957,-13.5227883704817,38.6266432199964));
#280=CARTESIAN_POINT('Origin',(-5.65224655703234,-13.,48.8405189630724));
#281=CARTESIAN_POINT('',(-39.4019509435064,-13.,102.965694023007));
#282=CARTESIAN_POINT('',(-38.7599425663414,-13.,108.006702979374));
#283=CARTESIAN_POINT('',(-23.7974307148923,-13.,84.3839146907191));
#284=CARTESIAN_POINT('Origin',(12.6800536037879,-14.2613941852408,37.4356615013245));
#285=CARTESIAN_POINT('',(15.7237266780697,-13.7630323319992,37.1131183555414));
#286=CARTESIAN_POINT('',(14.553008289073,-13.8928355704188,38.4716132535047));
#287=CARTESIAN_POINT('',(9.41301213368296,-15.,33.7193342033312));
#288=CARTESIAN_POINT('',(12.5547821593826,-14.3841794118954,35.4089193126105));
#289=CARTESIAN_POINT('',(8.66409075818018,-15.,36.2446797826526));
#290=CARTESIAN_POINT('Origin',(15.1061558582734,-10.9704711792609,38.6142011789342));
#291=CARTESIAN_POINT('',(-39.3073175441431,-13.7630323319992,102.643791851508));
#292=CARTESIAN_POINT('',(-39.3073175441431,-13.7630323319992,102.643791851508));
#293=CARTESIAN_POINT('',(14.7290780981917,-13.7630323319992,38.2975405712641));
#294=CARTESIAN_POINT('Origin',(-41.134023847433,-10.9704711792609,92.1981634807936));
#295=CARTESIAN_POINT('',(-40.6455653946831,-13.7630323319992,92.1359548195362));
#296=CARTESIAN_POINT('Origin',(-39.2770149065837,-14.2946920771661,79.0153976430573));
#297=CARTESIAN_POINT('',(-34.3730544058921,-15.,85.8595483430328));
#298=CARTESIAN_POINT('',(-35.3090652128017,-15.,78.5100510020123));
#299=CARTESIAN_POINT('',(-34.3730544058921,-15.,85.8595483430328));
#300=CARTESIAN_POINT('Origin',(7.87968968666945,-14.2946920771661,41.7651638332708));
#301=CARTESIAN_POINT('',(4.8165313479719,-15.,39.1927989695574));
#302=CARTESIAN_POINT('Origin',(-5.65224655703234,-15.,48.8405189630724));
#303=UNCERTAINTY_MEASURE_WITH_UNIT(LENGTH_MEASURE(0.01),#307,
'DISTANCE_ACCURACY_VALUE',
'Maximum model space distance between geometric entities at asserted c
onnectivities');
#304=UNCERTAINTY_MEASURE_WITH_UNIT(LENGTH_MEASURE(0.01),#307,
'DISTANCE_ACCURACY_VALUE',
'Maximum model space distance between geometric entities at asserted c
onnectivities');
#305=(
GEOMETRIC_REPRESENTATION_CONTEXT(3)
GLOBAL_UNCERTAINTY_ASSIGNED_CONTEXT((#303))
GLOBAL_UNIT_ASSIGNED_CONTEXT((#307,#309,#310))
REPRESENTATION_CONTEXT('','3D')
);
#306=(
GEOMETRIC_REPRESENTATION_CONTEXT(3)
GLOBAL_UNCERTAINTY_ASSIGNED_CONTEXT((#304))
GLOBAL_UNIT_ASSIGNED_CONTEXT((#307,#309,#310))
REPRESENTATION_CONTEXT('','3D')
);
#307=(
LENGTH_UNIT()
NAMED_UNIT(*)
SI_UNIT(.MILLI.,.METRE.)
);
#308=(
LENGTH_UNIT()
NAMED_UNIT(*)
SI_UNIT($,.METRE.)
);
#309=(
NAMED_UNIT(*)
PLANE_ANGLE_UNIT()
SI_UNIT($,.RADIAN.)
);
#310=(
NAMED_UNIT(*)
SI_UNIT($,.STERADIAN.)
SOLID_ANGLE_UNIT()
);
#311=SHAPE_DEFINITION_REPRESENTATION(#312,#313);
#312=PRODUCT_DEFINITION_SHAPE('',$,#315);
#313=SHAPE_REPRESENTATION('',(#198),#305);
#314=PRODUCT_DEFINITION_CONTEXT('part definition',#319,'design');
#315=PRODUCT_DEFINITION('Left Ear Panel','Left Ear Panel v2',#316,#314);
#316=PRODUCT_DEFINITION_FORMATION('',$,#321);
#317=PRODUCT_RELATED_PRODUCT_CATEGORY('Left Ear Panel v2',
'Left Ear Panel v2',(#321));
#318=APPLICATION_PROTOCOL_DEFINITION('international standard',
'automotive_design',2009,#319);
#319=APPLICATION_CONTEXT(
'Core Data for Automotive Mechanical Design Process');
#320=PRODUCT_CONTEXT('part definition',#319,'mechanical');
#321=PRODUCT('Left Ear Panel','Left Ear Panel v2',$,(#320));
#322=PRESENTATION_STYLE_ASSIGNMENT((#324));
#323=PRESENTATION_STYLE_ASSIGNMENT((#325));
#324=SURFACE_STYLE_USAGE(.BOTH.,#326);
#325=SURFACE_STYLE_USAGE(.BOTH.,#327);
#326=SURFACE_SIDE_STYLE('',(#328));
#327=SURFACE_SIDE_STYLE('',(#329));
#328=SURFACE_STYLE_FILL_AREA(#330);
#329=SURFACE_STYLE_FILL_AREA(#331);
#330=FILL_AREA_STYLE('Steel - Satin',(#332));
#331=FILL_AREA_STYLE('ABS (White)',(#333));
#332=FILL_AREA_STYLE_COLOUR('Steel - Satin',#334);
#333=FILL_AREA_STYLE_COLOUR('ABS (White)',#335);
#334=COLOUR_RGB('Steel - Satin',0.627450980392157,0.627450980392157,0.627450980392157);
#335=COLOUR_RGB('ABS (White)',0.533333333333333,0.674509803921569,0.749019607843137);
ENDSEC;
END-ISO-10303-21;
