ISO-10303-21;
HEADER;
/* Generated by software containing ST-Developer
 * from STEP Tools, Inc. (www.steptools.com) 
 */

FILE_DESCRIPTION(
/* description */ (''),
/* implementation_level */ '2;1');

FILE_NAME(
/* name */ 'Right Ear.step',
/* time_stamp */ '2026-02-26T14:38:52-05:00',
/* author */ (''),
/* organization */ (''),
/* preprocessor_version */ 'ST-DEVELOPER v20.1',
/* originating_system */ 'Autodesk Translation Framework v14.24.0.0',
/* authorisation */ '');

FILE_SCHEMA (('AUTOMOTIVE_DESIGN { 1 0 10303 214 3 1 1 }'));
ENDSEC;

DATA;
#10=MECHANICAL_DESIGN_GEOMETRIC_PRESENTATION_REPRESENTATION('',(#13),#1389);
#11=SHAPE_REPRESENTATION_RELATIONSHIP('SRR','None',#1396,#12);
#12=ADVANCED_BREP_SHAPE_REPRESENTATION('',(#14),#1388);
#13=STYLED_ITEM('',(#1406),#14);
#14=MANIFOLD_SOLID_BREP('Body1',#857);
#15=CIRCLE('',#904,28.5000000000001);
#16=CIRCLE('',#905,28.5000000000001);
#17=CIRCLE('',#908,25.5000000000001);
#18=CIRCLE('',#909,25.5000000000001);
#19=CIRCLE('',#912,30.);
#20=CIRCLE('',#913,30.);
#21=CIRCLE('',#916,25.5000000000001);
#22=CIRCLE('',#917,25.5000000000001);
#23=CIRCLE('',#920,28.5000000000001);
#24=CIRCLE('',#921,28.5000000000001);
#25=CYLINDRICAL_SURFACE('',#903,28.5000000000001);
#26=CYLINDRICAL_SURFACE('',#907,25.5000000000001);
#27=CYLINDRICAL_SURFACE('',#911,30.);
#28=CYLINDRICAL_SURFACE('',#915,25.5000000000001);
#29=CYLINDRICAL_SURFACE('',#919,28.5000000000001);
#30=FACE_OUTER_BOUND('',#74,.T.);
#31=FACE_OUTER_BOUND('',#75,.T.);
#32=FACE_OUTER_BOUND('',#76,.T.);
#33=FACE_OUTER_BOUND('',#77,.T.);
#34=FACE_OUTER_BOUND('',#78,.T.);
#35=FACE_OUTER_BOUND('',#79,.T.);
#36=FACE_OUTER_BOUND('',#80,.T.);
#37=FACE_OUTER_BOUND('',#81,.T.);
#38=FACE_OUTER_BOUND('',#82,.T.);
#39=FACE_OUTER_BOUND('',#83,.T.);
#40=FACE_OUTER_BOUND('',#84,.T.);
#41=FACE_OUTER_BOUND('',#85,.T.);
#42=FACE_OUTER_BOUND('',#86,.T.);
#43=FACE_OUTER_BOUND('',#87,.T.);
#44=FACE_OUTER_BOUND('',#88,.T.);
#45=FACE_OUTER_BOUND('',#89,.T.);
#46=FACE_OUTER_BOUND('',#90,.T.);
#47=FACE_OUTER_BOUND('',#91,.T.);
#48=FACE_OUTER_BOUND('',#92,.T.);
#49=FACE_OUTER_BOUND('',#93,.T.);
#50=FACE_OUTER_BOUND('',#94,.T.);
#51=FACE_OUTER_BOUND('',#95,.T.);
#52=FACE_OUTER_BOUND('',#96,.T.);
#53=FACE_OUTER_BOUND('',#97,.T.);
#54=FACE_OUTER_BOUND('',#98,.T.);
#55=FACE_OUTER_BOUND('',#99,.T.);
#56=FACE_OUTER_BOUND('',#100,.T.);
#57=FACE_OUTER_BOUND('',#101,.T.);
#58=FACE_OUTER_BOUND('',#102,.T.);
#59=FACE_OUTER_BOUND('',#103,.T.);
#60=FACE_OUTER_BOUND('',#104,.T.);
#61=FACE_OUTER_BOUND('',#105,.T.);
#62=FACE_OUTER_BOUND('',#106,.T.);
#63=FACE_OUTER_BOUND('',#107,.T.);
#64=FACE_OUTER_BOUND('',#108,.T.);
#65=FACE_OUTER_BOUND('',#109,.T.);
#66=FACE_OUTER_BOUND('',#110,.T.);
#67=FACE_OUTER_BOUND('',#111,.T.);
#68=FACE_OUTER_BOUND('',#112,.T.);
#69=FACE_OUTER_BOUND('',#113,.T.);
#70=FACE_OUTER_BOUND('',#114,.T.);
#71=FACE_OUTER_BOUND('',#115,.T.);
#72=FACE_OUTER_BOUND('',#116,.T.);
#73=FACE_OUTER_BOUND('',#117,.T.);
#74=EDGE_LOOP('',(#534,#535,#536,#537,#538,#539));
#75=EDGE_LOOP('',(#540,#541,#542,#543,#544,#545,#546,#547,#548));
#76=EDGE_LOOP('',(#549,#550,#551,#552,#553,#554));
#77=EDGE_LOOP('',(#555,#556,#557,#558,#559,#560));
#78=EDGE_LOOP('',(#561,#562,#563,#564));
#79=EDGE_LOOP('',(#565,#566,#567,#568,#569,#570));
#80=EDGE_LOOP('',(#571,#572,#573,#574));
#81=EDGE_LOOP('',(#575,#576,#577,#578,#579));
#82=EDGE_LOOP('',(#580,#581,#582,#583));
#83=EDGE_LOOP('',(#584,#585,#586,#587,#588,#589,#590));
#84=EDGE_LOOP('',(#591,#592,#593,#594,#595));
#85=EDGE_LOOP('',(#596,#597,#598,#599,#600));
#86=EDGE_LOOP('',(#601,#602,#603,#604,#605));
#87=EDGE_LOOP('',(#606,#607,#608,#609));
#88=EDGE_LOOP('',(#610,#611,#612,#613,#614));
#89=EDGE_LOOP('',(#615,#616,#617,#618,#619));
#90=EDGE_LOOP('',(#620,#621,#622,#623));
#91=EDGE_LOOP('',(#624,#625,#626,#627));
#92=EDGE_LOOP('',(#628,#629,#630,#631,#632,#633,#634,#635,#636));
#93=EDGE_LOOP('',(#637,#638,#639,#640,#641));
#94=EDGE_LOOP('',(#642,#643,#644,#645,#646));
#95=EDGE_LOOP('',(#647,#648,#649,#650));
#96=EDGE_LOOP('',(#651,#652,#653,#654));
#97=EDGE_LOOP('',(#655,#656,#657,#658,#659));
#98=EDGE_LOOP('',(#660,#661,#662,#663,#664,#665,#666,#667,#668));
#99=EDGE_LOOP('',(#669,#670,#671,#672,#673,#674,#675,#676,#677,#678,#679));
#100=EDGE_LOOP('',(#680,#681,#682,#683));
#101=EDGE_LOOP('',(#684,#685,#686,#687,#688));
#102=EDGE_LOOP('',(#689,#690,#691,#692));
#103=EDGE_LOOP('',(#693,#694,#695,#696,#697));
#104=EDGE_LOOP('',(#698,#699,#700,#701,#702));
#105=EDGE_LOOP('',(#703,#704,#705,#706));
#106=EDGE_LOOP('',(#707,#708,#709,#710));
#107=EDGE_LOOP('',(#711,#712,#713,#714));
#108=EDGE_LOOP('',(#715,#716,#717,#718));
#109=EDGE_LOOP('',(#719,#720,#721,#722));
#110=EDGE_LOOP('',(#723,#724,#725,#726));
#111=EDGE_LOOP('',(#727,#728,#729,#730));
#112=EDGE_LOOP('',(#731,#732,#733,#734));
#113=EDGE_LOOP('',(#735,#736,#737,#738));
#114=EDGE_LOOP('',(#739,#740,#741,#742));
#115=EDGE_LOOP('',(#743,#744,#745,#746));
#116=EDGE_LOOP('',(#747,#748,#749,#750,#751,#752,#753,#754,#755,#756,#757,
#758,#759,#760,#761));
#117=EDGE_LOOP('',(#762,#763,#764,#765,#766,#767,#768,#769,#770,#771,#772,
#773));
#118=LINE('',#1149,#228);
#119=LINE('',#1151,#229);
#120=LINE('',#1153,#230);
#121=LINE('',#1155,#231);
#122=LINE('',#1157,#232);
#123=LINE('',#1158,#233);
#124=LINE('',#1162,#234);
#125=LINE('',#1164,#235);
#126=LINE('',#1166,#236);
#127=LINE('',#1168,#237);
#128=LINE('',#1169,#238);
#129=LINE('',#1171,#239);
#130=LINE('',#1173,#240);
#131=LINE('',#1174,#241);
#132=LINE('',#1178,#242);
#133=LINE('',#1179,#243);
#134=LINE('',#1180,#244);
#135=LINE('',#1181,#245);
#136=LINE('',#1184,#246);
#137=LINE('',#1186,#247);
#138=LINE('',#1188,#248);
#139=LINE('',#1189,#249);
#140=LINE('',#1192,#250);
#141=LINE('',#1193,#251);
#142=LINE('',#1196,#252);
#143=LINE('',#1198,#253);
#144=LINE('',#1199,#254);
#145=LINE('',#1202,#255);
#146=LINE('',#1203,#256);
#147=LINE('',#1206,#257);
#148=LINE('',#1208,#258);
#149=LINE('',#1209,#259);
#150=LINE('',#1212,#260);
#151=LINE('',#1213,#261);
#152=LINE('',#1216,#262);
#153=LINE('',#1218,#263);
#154=LINE('',#1219,#264);
#155=LINE('',#1222,#265);
#156=LINE('',#1224,#266);
#157=LINE('',#1225,#267);
#158=LINE('',#1227,#268);
#159=LINE('',#1228,#269);
#160=LINE('',#1231,#270);
#161=LINE('',#1233,#271);
#162=LINE('',#1234,#272);
#163=LINE('',#1237,#273);
#164=LINE('',#1238,#274);
#165=LINE('',#1241,#275);
#166=LINE('',#1242,#276);
#167=LINE('',#1245,#277);
#168=LINE('',#1247,#278);
#169=LINE('',#1248,#279);
#170=LINE('',#1250,#280);
#171=LINE('',#1255,#281);
#172=LINE('',#1257,#282);
#173=LINE('',#1259,#283);
#174=LINE('',#1261,#284);
#175=LINE('',#1263,#285);
#176=LINE('',#1265,#286);
#177=LINE('',#1267,#287);
#178=LINE('',#1269,#288);
#179=LINE('',#1270,#289);
#180=LINE('',#1273,#290);
#181=LINE('',#1274,#291);
#182=LINE('',#1275,#292);
#183=LINE('',#1278,#293);
#184=LINE('',#1279,#294);
#185=LINE('',#1282,#295);
#186=LINE('',#1284,#296);
#187=LINE('',#1285,#297);
#188=LINE('',#1288,#298);
#189=LINE('',#1290,#299);
#190=LINE('',#1291,#300);
#191=LINE('',#1294,#301);
#192=LINE('',#1295,#302);
#193=LINE('',#1296,#303);
#194=LINE('',#1299,#304);
#195=LINE('',#1301,#305);
#196=LINE('',#1303,#306);
#197=LINE('',#1304,#307);
#198=LINE('',#1307,#308);
#199=LINE('',#1308,#309);
#200=LINE('',#1309,#310);
#201=LINE('',#1312,#311);
#202=LINE('',#1313,#312);
#203=LINE('',#1315,#313);
#204=LINE('',#1317,#314);
#205=LINE('',#1319,#315);
#206=LINE('',#1323,#316);
#207=LINE('',#1325,#317);
#208=LINE('',#1326,#318);
#209=LINE('',#1332,#319);
#210=LINE('',#1335,#320);
#211=LINE('',#1337,#321);
#212=LINE('',#1338,#322);
#213=LINE('',#1344,#323);
#214=LINE('',#1347,#324);
#215=LINE('',#1349,#325);
#216=LINE('',#1350,#326);
#217=LINE('',#1356,#327);
#218=LINE('',#1359,#328);
#219=LINE('',#1361,#329);
#220=LINE('',#1362,#330);
#221=LINE('',#1368,#331);
#222=LINE('',#1371,#332);
#223=LINE('',#1373,#333);
#224=LINE('',#1374,#334);
#225=LINE('',#1380,#335);
#226=LINE('',#1382,#336);
#227=LINE('',#1383,#337);
#228=VECTOR('',#929,10.);
#229=VECTOR('',#930,10.);
#230=VECTOR('',#931,10.);
#231=VECTOR('',#932,10.);
#232=VECTOR('',#933,10.);
#233=VECTOR('',#934,10.);
#234=VECTOR('',#937,10.);
#235=VECTOR('',#938,10.);
#236=VECTOR('',#939,10.);
#237=VECTOR('',#940,10.);
#238=VECTOR('',#941,10.);
#239=VECTOR('',#942,10.);
#240=VECTOR('',#943,10.);
#241=VECTOR('',#944,10.);
#242=VECTOR('',#947,10.);
#243=VECTOR('',#948,10.);
#244=VECTOR('',#949,10.);
#245=VECTOR('',#950,10.);
#246=VECTOR('',#953,10.);
#247=VECTOR('',#954,10.);
#248=VECTOR('',#955,10.);
#249=VECTOR('',#956,10.);
#250=VECTOR('',#959,10.);
#251=VECTOR('',#960,10.);
#252=VECTOR('',#963,10.);
#253=VECTOR('',#964,10.);
#254=VECTOR('',#965,10.);
#255=VECTOR('',#968,10.);
#256=VECTOR('',#969,10.);
#257=VECTOR('',#972,10.);
#258=VECTOR('',#973,10.);
#259=VECTOR('',#974,10.);
#260=VECTOR('',#977,10.);
#261=VECTOR('',#978,10.);
#262=VECTOR('',#981,10.);
#263=VECTOR('',#982,10.);
#264=VECTOR('',#983,10.);
#265=VECTOR('',#986,10.);
#266=VECTOR('',#987,10.);
#267=VECTOR('',#988,10.);
#268=VECTOR('',#991,10.);
#269=VECTOR('',#992,10.);
#270=VECTOR('',#995,10.);
#271=VECTOR('',#996,10.);
#272=VECTOR('',#997,10.);
#273=VECTOR('',#1000,10.);
#274=VECTOR('',#1001,10.);
#275=VECTOR('',#1004,10.);
#276=VECTOR('',#1005,10.);
#277=VECTOR('',#1008,10.);
#278=VECTOR('',#1009,10.);
#279=VECTOR('',#1010,10.);
#280=VECTOR('',#1013,10.);
#281=VECTOR('',#1018,10.);
#282=VECTOR('',#1019,10.);
#283=VECTOR('',#1020,10.);
#284=VECTOR('',#1021,10.);
#285=VECTOR('',#1022,10.);
#286=VECTOR('',#1023,10.);
#287=VECTOR('',#1024,10.);
#288=VECTOR('',#1025,10.);
#289=VECTOR('',#1026,10.);
#290=VECTOR('',#1029,10.);
#291=VECTOR('',#1030,10.);
#292=VECTOR('',#1031,10.);
#293=VECTOR('',#1034,10.);
#294=VECTOR('',#1035,10.);
#295=VECTOR('',#1038,10.);
#296=VECTOR('',#1039,10.);
#297=VECTOR('',#1040,10.);
#298=VECTOR('',#1043,10.);
#299=VECTOR('',#1044,10.);
#300=VECTOR('',#1045,10.);
#301=VECTOR('',#1048,10.);
#302=VECTOR('',#1049,10.);
#303=VECTOR('',#1050,10.);
#304=VECTOR('',#1053,10.);
#305=VECTOR('',#1054,10.);
#306=VECTOR('',#1055,10.);
#307=VECTOR('',#1056,10.);
#308=VECTOR('',#1059,10.);
#309=VECTOR('',#1060,10.);
#310=VECTOR('',#1061,10.);
#311=VECTOR('',#1064,10.);
#312=VECTOR('',#1065,10.);
#313=VECTOR('',#1068,10.);
#314=VECTOR('',#1071,10.);
#315=VECTOR('',#1074,10.);
#316=VECTOR('',#1079,10.);
#317=VECTOR('',#1080,10.);
#318=VECTOR('',#1081,10.);
#319=VECTOR('',#1088,10.);
#320=VECTOR('',#1091,10.);
#321=VECTOR('',#1092,10.);
#322=VECTOR('',#1093,10.);
#323=VECTOR('',#1100,10.);
#324=VECTOR('',#1103,10.);
#325=VECTOR('',#1104,10.);
#326=VECTOR('',#1105,10.);
#327=VECTOR('',#1112,10.);
#328=VECTOR('',#1115,10.);
#329=VECTOR('',#1116,10.);
#330=VECTOR('',#1117,10.);
#331=VECTOR('',#1124,10.);
#332=VECTOR('',#1127,10.);
#333=VECTOR('',#1128,10.);
#334=VECTOR('',#1129,10.);
#335=VECTOR('',#1136,10.);
#336=VECTOR('',#1139,10.);
#337=VECTOR('',#1140,10.);
#338=VERTEX_POINT('',#1147);
#339=VERTEX_POINT('',#1148);
#340=VERTEX_POINT('',#1150);
#341=VERTEX_POINT('',#1152);
#342=VERTEX_POINT('',#1154);
#343=VERTEX_POINT('',#1156);
#344=VERTEX_POINT('',#1160);
#345=VERTEX_POINT('',#1161);
#346=VERTEX_POINT('',#1163);
#347=VERTEX_POINT('',#1165);
#348=VERTEX_POINT('',#1167);
#349=VERTEX_POINT('',#1170);
#350=VERTEX_POINT('',#1172);
#351=VERTEX_POINT('',#1176);
#352=VERTEX_POINT('',#1177);
#353=VERTEX_POINT('',#1183);
#354=VERTEX_POINT('',#1185);
#355=VERTEX_POINT('',#1187);
#356=VERTEX_POINT('',#1191);
#357=VERTEX_POINT('',#1195);
#358=VERTEX_POINT('',#1197);
#359=VERTEX_POINT('',#1201);
#360=VERTEX_POINT('',#1205);
#361=VERTEX_POINT('',#1207);
#362=VERTEX_POINT('',#1211);
#363=VERTEX_POINT('',#1215);
#364=VERTEX_POINT('',#1217);
#365=VERTEX_POINT('',#1221);
#366=VERTEX_POINT('',#1223);
#367=VERTEX_POINT('',#1230);
#368=VERTEX_POINT('',#1232);
#369=VERTEX_POINT('',#1236);
#370=VERTEX_POINT('',#1240);
#371=VERTEX_POINT('',#1244);
#372=VERTEX_POINT('',#1246);
#373=VERTEX_POINT('',#1253);
#374=VERTEX_POINT('',#1254);
#375=VERTEX_POINT('',#1256);
#376=VERTEX_POINT('',#1258);
#377=VERTEX_POINT('',#1260);
#378=VERTEX_POINT('',#1262);
#379=VERTEX_POINT('',#1264);
#380=VERTEX_POINT('',#1266);
#381=VERTEX_POINT('',#1268);
#382=VERTEX_POINT('',#1272);
#383=VERTEX_POINT('',#1277);
#384=VERTEX_POINT('',#1281);
#385=VERTEX_POINT('',#1283);
#386=VERTEX_POINT('',#1287);
#387=VERTEX_POINT('',#1289);
#388=VERTEX_POINT('',#1293);
#389=VERTEX_POINT('',#1298);
#390=VERTEX_POINT('',#1300);
#391=VERTEX_POINT('',#1302);
#392=VERTEX_POINT('',#1306);
#393=VERTEX_POINT('',#1311);
#394=VERTEX_POINT('',#1322);
#395=VERTEX_POINT('',#1324);
#396=VERTEX_POINT('',#1328);
#397=VERTEX_POINT('',#1330);
#398=VERTEX_POINT('',#1334);
#399=VERTEX_POINT('',#1336);
#400=VERTEX_POINT('',#1340);
#401=VERTEX_POINT('',#1342);
#402=VERTEX_POINT('',#1346);
#403=VERTEX_POINT('',#1348);
#404=VERTEX_POINT('',#1352);
#405=VERTEX_POINT('',#1354);
#406=VERTEX_POINT('',#1358);
#407=VERTEX_POINT('',#1360);
#408=VERTEX_POINT('',#1364);
#409=VERTEX_POINT('',#1366);
#410=VERTEX_POINT('',#1370);
#411=VERTEX_POINT('',#1372);
#412=VERTEX_POINT('',#1376);
#413=VERTEX_POINT('',#1378);
#414=EDGE_CURVE('',#338,#339,#118,.T.);
#415=EDGE_CURVE('',#340,#338,#119,.T.);
#416=EDGE_CURVE('',#340,#341,#120,.T.);
#417=EDGE_CURVE('',#342,#341,#121,.T.);
#418=EDGE_CURVE('',#343,#342,#122,.T.);
#419=EDGE_CURVE('',#339,#343,#123,.T.);
#420=EDGE_CURVE('',#344,#345,#124,.T.);
#421=EDGE_CURVE('',#345,#346,#125,.T.);
#422=EDGE_CURVE('',#347,#346,#126,.T.);
#423=EDGE_CURVE('',#348,#347,#127,.T.);
#424=EDGE_CURVE('',#343,#348,#128,.T.);
#425=EDGE_CURVE('',#342,#349,#129,.T.);
#426=EDGE_CURVE('',#349,#350,#130,.T.);
#427=EDGE_CURVE('',#350,#344,#131,.T.);
#428=EDGE_CURVE('',#351,#352,#132,.T.);
#429=EDGE_CURVE('',#346,#351,#133,.T.);
#430=EDGE_CURVE('',#341,#345,#134,.T.);
#431=EDGE_CURVE('',#352,#340,#135,.T.);
#432=EDGE_CURVE('',#353,#338,#136,.T.);
#433=EDGE_CURVE('',#354,#353,#137,.T.);
#434=EDGE_CURVE('',#355,#354,#138,.T.);
#435=EDGE_CURVE('',#352,#355,#139,.T.);
#436=EDGE_CURVE('',#356,#339,#140,.T.);
#437=EDGE_CURVE('',#353,#356,#141,.T.);
#438=EDGE_CURVE('',#348,#357,#142,.T.);
#439=EDGE_CURVE('',#357,#358,#143,.T.);
#440=EDGE_CURVE('',#356,#358,#144,.T.);
#441=EDGE_CURVE('',#355,#359,#145,.T.);
#442=EDGE_CURVE('',#359,#351,#146,.T.);
#443=EDGE_CURVE('',#354,#360,#147,.T.);
#444=EDGE_CURVE('',#360,#361,#148,.T.);
#445=EDGE_CURVE('',#361,#359,#149,.T.);
#446=EDGE_CURVE('',#347,#362,#150,.T.);
#447=EDGE_CURVE('',#362,#357,#151,.T.);
#448=EDGE_CURVE('',#359,#363,#152,.T.);
#449=EDGE_CURVE('',#363,#364,#153,.T.);
#450=EDGE_CURVE('',#364,#362,#154,.T.);
#451=EDGE_CURVE('',#365,#361,#155,.T.);
#452=EDGE_CURVE('',#365,#366,#156,.T.);
#453=EDGE_CURVE('',#366,#363,#157,.T.);
#454=EDGE_CURVE('',#360,#356,#158,.T.);
#455=EDGE_CURVE('',#358,#365,#159,.T.);
#456=EDGE_CURVE('',#367,#358,#160,.T.);
#457=EDGE_CURVE('',#367,#368,#161,.T.);
#458=EDGE_CURVE('',#368,#366,#162,.T.);
#459=EDGE_CURVE('',#369,#357,#163,.T.);
#460=EDGE_CURVE('',#369,#367,#164,.T.);
#461=EDGE_CURVE('',#370,#364,#165,.T.);
#462=EDGE_CURVE('',#370,#369,#166,.T.);
#463=EDGE_CURVE('',#371,#363,#167,.T.);
#464=EDGE_CURVE('',#371,#372,#168,.T.);
#465=EDGE_CURVE('',#372,#370,#169,.T.);
#466=EDGE_CURVE('',#368,#371,#170,.T.);
#467=EDGE_CURVE('',#373,#374,#171,.F.);
#468=EDGE_CURVE('',#374,#375,#172,.T.);
#469=EDGE_CURVE('',#375,#376,#173,.F.);
#470=EDGE_CURVE('',#377,#376,#174,.T.);
#471=EDGE_CURVE('',#378,#377,#175,.T.);
#472=EDGE_CURVE('',#379,#378,#176,.T.);
#473=EDGE_CURVE('',#379,#380,#177,.T.);
#474=EDGE_CURVE('',#380,#381,#178,.F.);
#475=EDGE_CURVE('',#373,#381,#179,.T.);
#476=EDGE_CURVE('',#379,#382,#180,.T.);
#477=EDGE_CURVE('',#345,#382,#181,.T.);
#478=EDGE_CURVE('',#380,#344,#182,.T.);
#479=EDGE_CURVE('',#382,#383,#183,.T.);
#480=EDGE_CURVE('',#383,#342,#184,.T.);
#481=EDGE_CURVE('',#384,#374,#185,.T.);
#482=EDGE_CURVE('',#385,#373,#186,.T.);
#483=EDGE_CURVE('',#384,#385,#187,.T.);
#484=EDGE_CURVE('',#386,#384,#188,.T.);
#485=EDGE_CURVE('',#387,#385,#189,.T.);
#486=EDGE_CURVE('',#386,#387,#190,.T.);
#487=EDGE_CURVE('',#388,#386,#191,.T.);
#488=EDGE_CURVE('',#387,#377,#192,.F.);
#489=EDGE_CURVE('',#376,#388,#193,.F.);
#490=EDGE_CURVE('',#381,#389,#194,.T.);
#491=EDGE_CURVE('',#390,#389,#195,.T.);
#492=EDGE_CURVE('',#391,#390,#196,.T.);
#493=EDGE_CURVE('',#378,#391,#197,.T.);
#494=EDGE_CURVE('',#392,#388,#198,.T.);
#495=EDGE_CURVE('',#368,#392,#199,.T.);
#496=EDGE_CURVE('',#375,#372,#200,.T.);
#497=EDGE_CURVE('',#393,#368,#201,.T.);
#498=EDGE_CURVE('',#393,#372,#202,.T.);
#499=EDGE_CURVE('',#389,#350,#203,.T.);
#500=EDGE_CURVE('',#390,#349,#204,.T.);
#501=EDGE_CURVE('',#391,#383,#205,.T.);
#502=EDGE_CURVE('',#368,#394,#206,.T.);
#503=EDGE_CURVE('',#395,#392,#207,.T.);
#504=EDGE_CURVE('',#394,#395,#208,.T.);
#505=EDGE_CURVE('',#396,#394,#15,.T.);
#506=EDGE_CURVE('',#397,#395,#16,.T.);
#507=EDGE_CURVE('',#396,#397,#209,.T.);
#508=EDGE_CURVE('',#396,#398,#210,.T.);
#509=EDGE_CURVE('',#399,#397,#211,.T.);
#510=EDGE_CURVE('',#398,#399,#212,.T.);
#511=EDGE_CURVE('',#398,#400,#17,.T.);
#512=EDGE_CURVE('',#401,#399,#18,.T.);
#513=EDGE_CURVE('',#400,#401,#213,.T.);
#514=EDGE_CURVE('',#402,#400,#214,.T.);
#515=EDGE_CURVE('',#403,#401,#215,.T.);
#516=EDGE_CURVE('',#402,#403,#216,.T.);
#517=EDGE_CURVE('',#402,#404,#19,.T.);
#518=EDGE_CURVE('',#405,#403,#20,.T.);
#519=EDGE_CURVE('',#404,#405,#217,.T.);
#520=EDGE_CURVE('',#404,#406,#218,.T.);
#521=EDGE_CURVE('',#407,#405,#219,.T.);
#522=EDGE_CURVE('',#406,#407,#220,.T.);
#523=EDGE_CURVE('',#406,#408,#21,.T.);
#524=EDGE_CURVE('',#409,#407,#22,.T.);
#525=EDGE_CURVE('',#408,#409,#221,.T.);
#526=EDGE_CURVE('',#408,#410,#222,.T.);
#527=EDGE_CURVE('',#411,#409,#223,.T.);
#528=EDGE_CURVE('',#410,#411,#224,.T.);
#529=EDGE_CURVE('',#412,#410,#23,.T.);
#530=EDGE_CURVE('',#413,#411,#24,.T.);
#531=EDGE_CURVE('',#412,#413,#225,.T.);
#532=EDGE_CURVE('',#412,#393,#226,.T.);
#533=EDGE_CURVE('',#372,#413,#227,.T.);
#534=ORIENTED_EDGE('',*,*,#414,.F.);
#535=ORIENTED_EDGE('',*,*,#415,.F.);
#536=ORIENTED_EDGE('',*,*,#416,.T.);
#537=ORIENTED_EDGE('',*,*,#417,.F.);
#538=ORIENTED_EDGE('',*,*,#418,.F.);
#539=ORIENTED_EDGE('',*,*,#419,.F.);
#540=ORIENTED_EDGE('',*,*,#420,.T.);
#541=ORIENTED_EDGE('',*,*,#421,.T.);
#542=ORIENTED_EDGE('',*,*,#422,.F.);
#543=ORIENTED_EDGE('',*,*,#423,.F.);
#544=ORIENTED_EDGE('',*,*,#424,.F.);
#545=ORIENTED_EDGE('',*,*,#418,.T.);
#546=ORIENTED_EDGE('',*,*,#425,.T.);
#547=ORIENTED_EDGE('',*,*,#426,.T.);
#548=ORIENTED_EDGE('',*,*,#427,.T.);
#549=ORIENTED_EDGE('',*,*,#428,.F.);
#550=ORIENTED_EDGE('',*,*,#429,.F.);
#551=ORIENTED_EDGE('',*,*,#421,.F.);
#552=ORIENTED_EDGE('',*,*,#430,.F.);
#553=ORIENTED_EDGE('',*,*,#416,.F.);
#554=ORIENTED_EDGE('',*,*,#431,.F.);
#555=ORIENTED_EDGE('',*,*,#431,.T.);
#556=ORIENTED_EDGE('',*,*,#415,.T.);
#557=ORIENTED_EDGE('',*,*,#432,.F.);
#558=ORIENTED_EDGE('',*,*,#433,.F.);
#559=ORIENTED_EDGE('',*,*,#434,.F.);
#560=ORIENTED_EDGE('',*,*,#435,.F.);
#561=ORIENTED_EDGE('',*,*,#414,.T.);
#562=ORIENTED_EDGE('',*,*,#436,.F.);
#563=ORIENTED_EDGE('',*,*,#437,.F.);
#564=ORIENTED_EDGE('',*,*,#432,.T.);
#565=ORIENTED_EDGE('',*,*,#419,.T.);
#566=ORIENTED_EDGE('',*,*,#424,.T.);
#567=ORIENTED_EDGE('',*,*,#438,.T.);
#568=ORIENTED_EDGE('',*,*,#439,.T.);
#569=ORIENTED_EDGE('',*,*,#440,.F.);
#570=ORIENTED_EDGE('',*,*,#436,.T.);
#571=ORIENTED_EDGE('',*,*,#428,.T.);
#572=ORIENTED_EDGE('',*,*,#435,.T.);
#573=ORIENTED_EDGE('',*,*,#441,.T.);
#574=ORIENTED_EDGE('',*,*,#442,.T.);
#575=ORIENTED_EDGE('',*,*,#434,.T.);
#576=ORIENTED_EDGE('',*,*,#443,.T.);
#577=ORIENTED_EDGE('',*,*,#444,.T.);
#578=ORIENTED_EDGE('',*,*,#445,.T.);
#579=ORIENTED_EDGE('',*,*,#441,.F.);
#580=ORIENTED_EDGE('',*,*,#423,.T.);
#581=ORIENTED_EDGE('',*,*,#446,.T.);
#582=ORIENTED_EDGE('',*,*,#447,.T.);
#583=ORIENTED_EDGE('',*,*,#438,.F.);
#584=ORIENTED_EDGE('',*,*,#429,.T.);
#585=ORIENTED_EDGE('',*,*,#442,.F.);
#586=ORIENTED_EDGE('',*,*,#448,.T.);
#587=ORIENTED_EDGE('',*,*,#449,.T.);
#588=ORIENTED_EDGE('',*,*,#450,.T.);
#589=ORIENTED_EDGE('',*,*,#446,.F.);
#590=ORIENTED_EDGE('',*,*,#422,.T.);
#591=ORIENTED_EDGE('',*,*,#445,.F.);
#592=ORIENTED_EDGE('',*,*,#451,.F.);
#593=ORIENTED_EDGE('',*,*,#452,.T.);
#594=ORIENTED_EDGE('',*,*,#453,.T.);
#595=ORIENTED_EDGE('',*,*,#448,.F.);
#596=ORIENTED_EDGE('',*,*,#444,.F.);
#597=ORIENTED_EDGE('',*,*,#454,.T.);
#598=ORIENTED_EDGE('',*,*,#440,.T.);
#599=ORIENTED_EDGE('',*,*,#455,.T.);
#600=ORIENTED_EDGE('',*,*,#451,.T.);
#601=ORIENTED_EDGE('',*,*,#455,.F.);
#602=ORIENTED_EDGE('',*,*,#456,.F.);
#603=ORIENTED_EDGE('',*,*,#457,.T.);
#604=ORIENTED_EDGE('',*,*,#458,.T.);
#605=ORIENTED_EDGE('',*,*,#452,.F.);
#606=ORIENTED_EDGE('',*,*,#439,.F.);
#607=ORIENTED_EDGE('',*,*,#459,.F.);
#608=ORIENTED_EDGE('',*,*,#460,.T.);
#609=ORIENTED_EDGE('',*,*,#456,.T.);
#610=ORIENTED_EDGE('',*,*,#447,.F.);
#611=ORIENTED_EDGE('',*,*,#450,.F.);
#612=ORIENTED_EDGE('',*,*,#461,.F.);
#613=ORIENTED_EDGE('',*,*,#462,.T.);
#614=ORIENTED_EDGE('',*,*,#459,.T.);
#615=ORIENTED_EDGE('',*,*,#449,.F.);
#616=ORIENTED_EDGE('',*,*,#463,.F.);
#617=ORIENTED_EDGE('',*,*,#464,.T.);
#618=ORIENTED_EDGE('',*,*,#465,.T.);
#619=ORIENTED_EDGE('',*,*,#461,.T.);
#620=ORIENTED_EDGE('',*,*,#453,.F.);
#621=ORIENTED_EDGE('',*,*,#458,.F.);
#622=ORIENTED_EDGE('',*,*,#466,.T.);
#623=ORIENTED_EDGE('',*,*,#463,.T.);
#624=ORIENTED_EDGE('',*,*,#443,.F.);
#625=ORIENTED_EDGE('',*,*,#433,.T.);
#626=ORIENTED_EDGE('',*,*,#437,.T.);
#627=ORIENTED_EDGE('',*,*,#454,.F.);
#628=ORIENTED_EDGE('',*,*,#467,.T.);
#629=ORIENTED_EDGE('',*,*,#468,.T.);
#630=ORIENTED_EDGE('',*,*,#469,.T.);
#631=ORIENTED_EDGE('',*,*,#470,.F.);
#632=ORIENTED_EDGE('',*,*,#471,.F.);
#633=ORIENTED_EDGE('',*,*,#472,.F.);
#634=ORIENTED_EDGE('',*,*,#473,.T.);
#635=ORIENTED_EDGE('',*,*,#474,.T.);
#636=ORIENTED_EDGE('',*,*,#475,.F.);
#637=ORIENTED_EDGE('',*,*,#473,.F.);
#638=ORIENTED_EDGE('',*,*,#476,.T.);
#639=ORIENTED_EDGE('',*,*,#477,.F.);
#640=ORIENTED_EDGE('',*,*,#420,.F.);
#641=ORIENTED_EDGE('',*,*,#478,.F.);
#642=ORIENTED_EDGE('',*,*,#430,.T.);
#643=ORIENTED_EDGE('',*,*,#477,.T.);
#644=ORIENTED_EDGE('',*,*,#479,.T.);
#645=ORIENTED_EDGE('',*,*,#480,.T.);
#646=ORIENTED_EDGE('',*,*,#417,.T.);
#647=ORIENTED_EDGE('',*,*,#481,.T.);
#648=ORIENTED_EDGE('',*,*,#467,.F.);
#649=ORIENTED_EDGE('',*,*,#482,.F.);
#650=ORIENTED_EDGE('',*,*,#483,.F.);
#651=ORIENTED_EDGE('',*,*,#484,.T.);
#652=ORIENTED_EDGE('',*,*,#483,.T.);
#653=ORIENTED_EDGE('',*,*,#485,.F.);
#654=ORIENTED_EDGE('',*,*,#486,.F.);
#655=ORIENTED_EDGE('',*,*,#487,.T.);
#656=ORIENTED_EDGE('',*,*,#486,.T.);
#657=ORIENTED_EDGE('',*,*,#488,.T.);
#658=ORIENTED_EDGE('',*,*,#470,.T.);
#659=ORIENTED_EDGE('',*,*,#489,.T.);
#660=ORIENTED_EDGE('',*,*,#488,.F.);
#661=ORIENTED_EDGE('',*,*,#485,.T.);
#662=ORIENTED_EDGE('',*,*,#482,.T.);
#663=ORIENTED_EDGE('',*,*,#475,.T.);
#664=ORIENTED_EDGE('',*,*,#490,.T.);
#665=ORIENTED_EDGE('',*,*,#491,.F.);
#666=ORIENTED_EDGE('',*,*,#492,.F.);
#667=ORIENTED_EDGE('',*,*,#493,.F.);
#668=ORIENTED_EDGE('',*,*,#471,.T.);
#669=ORIENTED_EDGE('',*,*,#481,.F.);
#670=ORIENTED_EDGE('',*,*,#484,.F.);
#671=ORIENTED_EDGE('',*,*,#487,.F.);
#672=ORIENTED_EDGE('',*,*,#494,.F.);
#673=ORIENTED_EDGE('',*,*,#495,.F.);
#674=ORIENTED_EDGE('',*,*,#457,.F.);
#675=ORIENTED_EDGE('',*,*,#460,.F.);
#676=ORIENTED_EDGE('',*,*,#462,.F.);
#677=ORIENTED_EDGE('',*,*,#465,.F.);
#678=ORIENTED_EDGE('',*,*,#496,.F.);
#679=ORIENTED_EDGE('',*,*,#468,.F.);
#680=ORIENTED_EDGE('',*,*,#497,.F.);
#681=ORIENTED_EDGE('',*,*,#498,.T.);
#682=ORIENTED_EDGE('',*,*,#464,.F.);
#683=ORIENTED_EDGE('',*,*,#466,.F.);
#684=ORIENTED_EDGE('',*,*,#490,.F.);
#685=ORIENTED_EDGE('',*,*,#474,.F.);
#686=ORIENTED_EDGE('',*,*,#478,.T.);
#687=ORIENTED_EDGE('',*,*,#427,.F.);
#688=ORIENTED_EDGE('',*,*,#499,.F.);
#689=ORIENTED_EDGE('',*,*,#491,.T.);
#690=ORIENTED_EDGE('',*,*,#499,.T.);
#691=ORIENTED_EDGE('',*,*,#426,.F.);
#692=ORIENTED_EDGE('',*,*,#500,.F.);
#693=ORIENTED_EDGE('',*,*,#492,.T.);
#694=ORIENTED_EDGE('',*,*,#500,.T.);
#695=ORIENTED_EDGE('',*,*,#425,.F.);
#696=ORIENTED_EDGE('',*,*,#480,.F.);
#697=ORIENTED_EDGE('',*,*,#501,.F.);
#698=ORIENTED_EDGE('',*,*,#493,.T.);
#699=ORIENTED_EDGE('',*,*,#501,.T.);
#700=ORIENTED_EDGE('',*,*,#479,.F.);
#701=ORIENTED_EDGE('',*,*,#476,.F.);
#702=ORIENTED_EDGE('',*,*,#472,.T.);
#703=ORIENTED_EDGE('',*,*,#502,.F.);
#704=ORIENTED_EDGE('',*,*,#495,.T.);
#705=ORIENTED_EDGE('',*,*,#503,.F.);
#706=ORIENTED_EDGE('',*,*,#504,.F.);
#707=ORIENTED_EDGE('',*,*,#505,.T.);
#708=ORIENTED_EDGE('',*,*,#504,.T.);
#709=ORIENTED_EDGE('',*,*,#506,.F.);
#710=ORIENTED_EDGE('',*,*,#507,.F.);
#711=ORIENTED_EDGE('',*,*,#508,.F.);
#712=ORIENTED_EDGE('',*,*,#507,.T.);
#713=ORIENTED_EDGE('',*,*,#509,.F.);
#714=ORIENTED_EDGE('',*,*,#510,.F.);
#715=ORIENTED_EDGE('',*,*,#511,.F.);
#716=ORIENTED_EDGE('',*,*,#510,.T.);
#717=ORIENTED_EDGE('',*,*,#512,.F.);
#718=ORIENTED_EDGE('',*,*,#513,.F.);
#719=ORIENTED_EDGE('',*,*,#514,.T.);
#720=ORIENTED_EDGE('',*,*,#513,.T.);
#721=ORIENTED_EDGE('',*,*,#515,.F.);
#722=ORIENTED_EDGE('',*,*,#516,.F.);
#723=ORIENTED_EDGE('',*,*,#517,.F.);
#724=ORIENTED_EDGE('',*,*,#516,.T.);
#725=ORIENTED_EDGE('',*,*,#518,.F.);
#726=ORIENTED_EDGE('',*,*,#519,.F.);
#727=ORIENTED_EDGE('',*,*,#520,.F.);
#728=ORIENTED_EDGE('',*,*,#519,.T.);
#729=ORIENTED_EDGE('',*,*,#521,.F.);
#730=ORIENTED_EDGE('',*,*,#522,.F.);
#731=ORIENTED_EDGE('',*,*,#523,.F.);
#732=ORIENTED_EDGE('',*,*,#522,.T.);
#733=ORIENTED_EDGE('',*,*,#524,.F.);
#734=ORIENTED_EDGE('',*,*,#525,.F.);
#735=ORIENTED_EDGE('',*,*,#526,.F.);
#736=ORIENTED_EDGE('',*,*,#525,.T.);
#737=ORIENTED_EDGE('',*,*,#527,.F.);
#738=ORIENTED_EDGE('',*,*,#528,.F.);
#739=ORIENTED_EDGE('',*,*,#529,.T.);
#740=ORIENTED_EDGE('',*,*,#528,.T.);
#741=ORIENTED_EDGE('',*,*,#530,.F.);
#742=ORIENTED_EDGE('',*,*,#531,.F.);
#743=ORIENTED_EDGE('',*,*,#532,.F.);
#744=ORIENTED_EDGE('',*,*,#531,.T.);
#745=ORIENTED_EDGE('',*,*,#533,.F.);
#746=ORIENTED_EDGE('',*,*,#498,.F.);
#747=ORIENTED_EDGE('',*,*,#533,.T.);
#748=ORIENTED_EDGE('',*,*,#530,.T.);
#749=ORIENTED_EDGE('',*,*,#527,.T.);
#750=ORIENTED_EDGE('',*,*,#524,.T.);
#751=ORIENTED_EDGE('',*,*,#521,.T.);
#752=ORIENTED_EDGE('',*,*,#518,.T.);
#753=ORIENTED_EDGE('',*,*,#515,.T.);
#754=ORIENTED_EDGE('',*,*,#512,.T.);
#755=ORIENTED_EDGE('',*,*,#509,.T.);
#756=ORIENTED_EDGE('',*,*,#506,.T.);
#757=ORIENTED_EDGE('',*,*,#503,.T.);
#758=ORIENTED_EDGE('',*,*,#494,.T.);
#759=ORIENTED_EDGE('',*,*,#489,.F.);
#760=ORIENTED_EDGE('',*,*,#469,.F.);
#761=ORIENTED_EDGE('',*,*,#496,.T.);
#762=ORIENTED_EDGE('',*,*,#532,.T.);
#763=ORIENTED_EDGE('',*,*,#497,.T.);
#764=ORIENTED_EDGE('',*,*,#502,.T.);
#765=ORIENTED_EDGE('',*,*,#505,.F.);
#766=ORIENTED_EDGE('',*,*,#508,.T.);
#767=ORIENTED_EDGE('',*,*,#511,.T.);
#768=ORIENTED_EDGE('',*,*,#514,.F.);
#769=ORIENTED_EDGE('',*,*,#517,.T.);
#770=ORIENTED_EDGE('',*,*,#520,.T.);
#771=ORIENTED_EDGE('',*,*,#523,.T.);
#772=ORIENTED_EDGE('',*,*,#526,.T.);
#773=ORIENTED_EDGE('',*,*,#529,.F.);
#774=PLANE('',#871);
#775=PLANE('',#872);
#776=PLANE('',#873);
#777=PLANE('',#874);
#778=PLANE('',#875);
#779=PLANE('',#876);
#780=PLANE('',#877);
#781=PLANE('',#878);
#782=PLANE('',#879);
#783=PLANE('',#880);
#784=PLANE('',#881);
#785=PLANE('',#882);
#786=PLANE('',#883);
#787=PLANE('',#884);
#788=PLANE('',#885);
#789=PLANE('',#886);
#790=PLANE('',#887);
#791=PLANE('',#888);
#792=PLANE('',#889);
#793=PLANE('',#890);
#794=PLANE('',#891);
#795=PLANE('',#892);
#796=PLANE('',#893);
#797=PLANE('',#894);
#798=PLANE('',#895);
#799=PLANE('',#896);
#800=PLANE('',#897);
#801=PLANE('',#898);
#802=PLANE('',#899);
#803=PLANE('',#900);
#804=PLANE('',#901);
#805=PLANE('',#902);
#806=PLANE('',#906);
#807=PLANE('',#910);
#808=PLANE('',#914);
#809=PLANE('',#918);
#810=PLANE('',#922);
#811=PLANE('',#923);
#812=PLANE('',#924);
#813=ADVANCED_FACE('',(#30),#774,.F.);
#814=ADVANCED_FACE('',(#31),#775,.F.);
#815=ADVANCED_FACE('',(#32),#776,.F.);
#816=ADVANCED_FACE('',(#33),#777,.T.);
#817=ADVANCED_FACE('',(#34),#778,.T.);
#818=ADVANCED_FACE('',(#35),#779,.T.);
#819=ADVANCED_FACE('',(#36),#780,.T.);
#820=ADVANCED_FACE('',(#37),#781,.T.);
#821=ADVANCED_FACE('',(#38),#782,.T.);
#822=ADVANCED_FACE('',(#39),#783,.T.);
#823=ADVANCED_FACE('',(#40),#784,.T.);
#824=ADVANCED_FACE('',(#41),#785,.T.);
#825=ADVANCED_FACE('',(#42),#786,.T.);
#826=ADVANCED_FACE('',(#43),#787,.T.);
#827=ADVANCED_FACE('',(#44),#788,.T.);
#828=ADVANCED_FACE('',(#45),#789,.T.);
#829=ADVANCED_FACE('',(#46),#790,.T.);
#830=ADVANCED_FACE('',(#47),#791,.T.);
#831=ADVANCED_FACE('',(#48),#792,.T.);
#832=ADVANCED_FACE('',(#49),#793,.T.);
#833=ADVANCED_FACE('',(#50),#794,.F.);
#834=ADVANCED_FACE('',(#51),#795,.T.);
#835=ADVANCED_FACE('',(#52),#796,.T.);
#836=ADVANCED_FACE('',(#53),#797,.T.);
#837=ADVANCED_FACE('',(#54),#798,.T.);
#838=ADVANCED_FACE('',(#55),#799,.F.);
#839=ADVANCED_FACE('',(#56),#800,.F.);
#840=ADVANCED_FACE('',(#57),#801,.T.);
#841=ADVANCED_FACE('',(#58),#802,.T.);
#842=ADVANCED_FACE('',(#59),#803,.T.);
#843=ADVANCED_FACE('',(#60),#804,.T.);
#844=ADVANCED_FACE('',(#61),#805,.T.);
#845=ADVANCED_FACE('',(#62),#25,.T.);
#846=ADVANCED_FACE('',(#63),#806,.T.);
#847=ADVANCED_FACE('',(#64),#26,.F.);
#848=ADVANCED_FACE('',(#65),#807,.T.);
#849=ADVANCED_FACE('',(#66),#27,.F.);
#850=ADVANCED_FACE('',(#67),#808,.T.);
#851=ADVANCED_FACE('',(#68),#28,.F.);
#852=ADVANCED_FACE('',(#69),#809,.T.);
#853=ADVANCED_FACE('',(#70),#29,.T.);
#854=ADVANCED_FACE('',(#71),#810,.T.);
#855=ADVANCED_FACE('',(#72),#811,.T.);
#856=ADVANCED_FACE('',(#73),#812,.F.);
#857=CLOSED_SHELL('',(#813,#814,#815,#816,#817,#818,#819,#820,#821,#822,
#823,#824,#825,#826,#827,#828,#829,#830,#831,#832,#833,#834,#835,#836,#837,
#838,#839,#840,#841,#842,#843,#844,#845,#846,#847,#848,#849,#850,#851,#852,
#853,#854,#855,#856));
#858=DERIVED_UNIT_ELEMENT(#860,1.);
#859=DERIVED_UNIT_ELEMENT(#1391,-3.);
#860=(
MASS_UNIT()
NAMED_UNIT(*)
SI_UNIT(.KILO.,.GRAM.)
);
#861=DERIVED_UNIT((#858,#859));
#862=MEASURE_REPRESENTATION_ITEM('density measure',
POSITIVE_RATIO_MEASURE(7850.),#861);
#863=PROPERTY_DEFINITION_REPRESENTATION(#868,#865);
#864=PROPERTY_DEFINITION_REPRESENTATION(#869,#866);
#865=REPRESENTATION('material name',(#867),#1388);
#866=REPRESENTATION('density',(#862),#1388);
#867=DESCRIPTIVE_REPRESENTATION_ITEM('Steel','Steel');
#868=PROPERTY_DEFINITION('material property','material name',#1398);
#869=PROPERTY_DEFINITION('material property','density of part',#1398);
#870=AXIS2_PLACEMENT_3D('',#1145,#925,#926);
#871=AXIS2_PLACEMENT_3D('',#1146,#927,#928);
#872=AXIS2_PLACEMENT_3D('',#1159,#935,#936);
#873=AXIS2_PLACEMENT_3D('',#1175,#945,#946);
#874=AXIS2_PLACEMENT_3D('',#1182,#951,#952);
#875=AXIS2_PLACEMENT_3D('',#1190,#957,#958);
#876=AXIS2_PLACEMENT_3D('',#1194,#961,#962);
#877=AXIS2_PLACEMENT_3D('',#1200,#966,#967);
#878=AXIS2_PLACEMENT_3D('',#1204,#970,#971);
#879=AXIS2_PLACEMENT_3D('',#1210,#975,#976);
#880=AXIS2_PLACEMENT_3D('',#1214,#979,#980);
#881=AXIS2_PLACEMENT_3D('',#1220,#984,#985);
#882=AXIS2_PLACEMENT_3D('',#1226,#989,#990);
#883=AXIS2_PLACEMENT_3D('',#1229,#993,#994);
#884=AXIS2_PLACEMENT_3D('',#1235,#998,#999);
#885=AXIS2_PLACEMENT_3D('',#1239,#1002,#1003);
#886=AXIS2_PLACEMENT_3D('',#1243,#1006,#1007);
#887=AXIS2_PLACEMENT_3D('',#1249,#1011,#1012);
#888=AXIS2_PLACEMENT_3D('',#1251,#1014,#1015);
#889=AXIS2_PLACEMENT_3D('',#1252,#1016,#1017);
#890=AXIS2_PLACEMENT_3D('',#1271,#1027,#1028);
#891=AXIS2_PLACEMENT_3D('',#1276,#1032,#1033);
#892=AXIS2_PLACEMENT_3D('',#1280,#1036,#1037);
#893=AXIS2_PLACEMENT_3D('',#1286,#1041,#1042);
#894=AXIS2_PLACEMENT_3D('',#1292,#1046,#1047);
#895=AXIS2_PLACEMENT_3D('',#1297,#1051,#1052);
#896=AXIS2_PLACEMENT_3D('',#1305,#1057,#1058);
#897=AXIS2_PLACEMENT_3D('',#1310,#1062,#1063);
#898=AXIS2_PLACEMENT_3D('',#1314,#1066,#1067);
#899=AXIS2_PLACEMENT_3D('',#1316,#1069,#1070);
#900=AXIS2_PLACEMENT_3D('',#1318,#1072,#1073);
#901=AXIS2_PLACEMENT_3D('',#1320,#1075,#1076);
#902=AXIS2_PLACEMENT_3D('',#1321,#1077,#1078);
#903=AXIS2_PLACEMENT_3D('',#1327,#1082,#1083);
#904=AXIS2_PLACEMENT_3D('',#1329,#1084,#1085);
#905=AXIS2_PLACEMENT_3D('',#1331,#1086,#1087);
#906=AXIS2_PLACEMENT_3D('',#1333,#1089,#1090);
#907=AXIS2_PLACEMENT_3D('',#1339,#1094,#1095);
#908=AXIS2_PLACEMENT_3D('',#1341,#1096,#1097);
#909=AXIS2_PLACEMENT_3D('',#1343,#1098,#1099);
#910=AXIS2_PLACEMENT_3D('',#1345,#1101,#1102);
#911=AXIS2_PLACEMENT_3D('',#1351,#1106,#1107);
#912=AXIS2_PLACEMENT_3D('',#1353,#1108,#1109);
#913=AXIS2_PLACEMENT_3D('',#1355,#1110,#1111);
#914=AXIS2_PLACEMENT_3D('',#1357,#1113,#1114);
#915=AXIS2_PLACEMENT_3D('',#1363,#1118,#1119);
#916=AXIS2_PLACEMENT_3D('',#1365,#1120,#1121);
#917=AXIS2_PLACEMENT_3D('',#1367,#1122,#1123);
#918=AXIS2_PLACEMENT_3D('',#1369,#1125,#1126);
#919=AXIS2_PLACEMENT_3D('',#1375,#1130,#1131);
#920=AXIS2_PLACEMENT_3D('',#1377,#1132,#1133);
#921=AXIS2_PLACEMENT_3D('',#1379,#1134,#1135);
#922=AXIS2_PLACEMENT_3D('',#1381,#1137,#1138);
#923=AXIS2_PLACEMENT_3D('',#1384,#1141,#1142);
#924=AXIS2_PLACEMENT_3D('',#1385,#1143,#1144);
#925=DIRECTION('axis',(0.,0.,1.));
#926=DIRECTION('refdir',(1.,0.,0.));
#927=DIRECTION('center_axis',(-0.831795329668218,0.,-0.555082452922213));
#928=DIRECTION('ref_axis',(-0.555082452922213,0.,0.831795329668218));
#929=DIRECTION('',(-0.55140899195836,0.114856147740105,0.826290620129363));
#930=DIRECTION('',(-0.555082452922213,0.,0.831795329668218));
#931=DIRECTION('',(0.,1.,0.));
#932=DIRECTION('',(0.555082452922213,0.,-0.831795329668218));
#933=DIRECTION('',(0.555082452922213,0.,-0.831795329668218));
#934=DIRECTION('',(-0.144144119940586,0.965694573295181,0.216001073596388));
#935=DIRECTION('center_axis',(0.,1.,0.));
#936=DIRECTION('ref_axis',(0.,0.,1.));
#937=DIRECTION('',(-0.86602540378444,0.,-0.499999999999997));
#938=DIRECTION('',(0.961831931013421,0.,-0.273640889640043));
#939=DIRECTION('',(0.284322444172559,0.,-0.958728714360711));
#940=DIRECTION('',(0.64309121592837,0.,-0.765789584674387));
#941=DIRECTION('',(0.126336660261238,0.,0.991987423445498));
#942=DIRECTION('',(0.126336660261238,0.,0.991987423445498));
#943=DIRECTION('',(0.64309121592837,0.,-0.765789584674388));
#944=DIRECTION('',(0.28432244417256,0.,-0.958728714360711));
#945=DIRECTION('center_axis',(-0.273640889640043,0.,-0.961831931013421));
#946=DIRECTION('ref_axis',(-0.961831931013421,0.,0.273640889640043));
#947=DIRECTION('',(-0.951346466319245,-0.147255791567224,0.270657778147602));
#948=DIRECTION('',(-0.196622975858056,-0.978882124625115,0.0559391763806192));
#949=DIRECTION('',(0.961831931013421,0.,-0.273640889640043));
#950=DIRECTION('',(-0.961831931013421,0.,0.273640889640043));
#951=DIRECTION('center_axis',(0.,-1.,0.));
#952=DIRECTION('ref_axis',(0.,0.,-1.));
#953=DIRECTION('',(0.126336660261238,0.,0.991987423445498));
#954=DIRECTION('',(-0.460355915136371,0.,0.887734437429885));
#955=DIRECTION('',(-0.978986361552331,0.,0.203925731320321));
#956=DIRECTION('',(0.284322444172559,0.,-0.958728714360711));
#957=DIRECTION('center_axis',(-0.172256808349824,-0.984807753012208,0.0219381308268901));
#958=DIRECTION('ref_axis',(0.,-0.0222710365944462,-0.999751969704991));
#959=DIRECTION('',(0.126336660261238,-3.52296876353958E-18,0.991987423445498));
#960=DIRECTION('',(-0.970918744193509,0.165984082859023,-0.172528480000113));
#961=DIRECTION('center_axis',(-0.97691690549973,-0.173648177666931,0.124417322514937));
#962=DIRECTION('ref_axis',(0.126336660261238,0.,0.991987423445498));
#963=DIRECTION('',(-0.113531441574476,0.915407891955486,0.386185192776257));
#964=DIRECTION('',(-0.126336660261238,3.52296876353958E-18,-0.991987423445498));
#965=DIRECTION('',(-0.178841586346461,0.983364506848961,-0.0317794534688828));
#966=DIRECTION('center_axis',(0.166481494125696,-0.984807753012208,0.0493720743003725));
#967=DIRECTION('ref_axis',(0.,-0.0500708338580916,-0.998745669125406));
#968=DIRECTION('',(0.732821068468455,0.0900713559729002,-0.67443341586991));
#969=DIRECTION('',(-0.284322444172559,0.,0.958728714360711));
#970=DIRECTION('center_axis',(-0.0354113316231698,-0.984807753012208,-0.169999197644341));
#971=DIRECTION('ref_axis',(0.,0.170105884292177,-0.985425790269961));
#972=DIRECTION('',(-0.596775503352152,0.157284653208908,-0.786842129314222));
#973=DIRECTION('',(0.43420106911352,0.138050689112878,-0.890174948432125));
#974=DIRECTION('',(0.978986361552331,0.,-0.203925731320321));
#975=DIRECTION('center_axis',(0.754155520163335,-0.173648177666931,0.633321215340307));
#976=DIRECTION('ref_axis',(0.64309121592837,0.,-0.765789584674387));
#977=DIRECTION('',(0.156108295238265,0.984165759348057,0.0839521190004453));
#978=DIRECTION('',(-0.64309121592837,0.,0.765789584674387));
#979=DIRECTION('center_axis',(0.944163470937855,-0.17364817766693,0.280002947376517));
#980=DIRECTION('ref_axis',(0.284322444172559,0.,-0.958728714360711));
#981=DIRECTION('',(0.239216908238367,0.945677562836387,-0.220157257342807));
#982=DIRECTION('',(-0.284322444172559,0.,0.958728714360711));
#983=DIRECTION('',(-0.260043399939424,-0.91459782014862,0.3096582915527));
#984=DIRECTION('center_axis',(-0.200827641242937,-0.17364817766693,-0.964113358949949));
#985=DIRECTION('ref_axis',(-0.978986361552331,0.,0.203925731320321));
#986=DIRECTION('',(0.115781928040961,-0.981473541908202,0.152657235902155));
#987=DIRECTION('',(0.102104327423203,0.975093472113278,-0.196894456406286));
#988=DIRECTION('',(0.978986361552331,0.,-0.203925731320321));
#989=DIRECTION('center_axis',(-0.874247756596882,-0.173648177666929,-0.453362074371328));
#990=DIRECTION('ref_axis',(-0.460355915136371,0.,0.887734437429885));
#991=DIRECTION('',(-0.460355915136371,1.40918750541583E-17,0.887734437429885));
#992=DIRECTION('',(0.460355915136371,-1.40918750541583E-17,-0.887734437429885));
#993=DIRECTION('center_axis',(-0.887734437429885,0.,-0.460355915136371));
#994=DIRECTION('ref_axis',(0.460355915136371,0.,-0.887734437429885));
#995=DIRECTION('',(0.,-1.,0.));
#996=DIRECTION('',(0.460355915136371,0.,-0.887734437429885));
#997=DIRECTION('',(0.,-1.,0.));
#998=DIRECTION('center_axis',(-0.991987423445497,0.,0.126336660261238));
#999=DIRECTION('ref_axis',(-0.126336660261238,0.,-0.991987423445498));
#1000=DIRECTION('',(0.,-1.,0.));
#1001=DIRECTION('',(-0.126336660261238,0.,-0.991987423445498));
#1002=DIRECTION('center_axis',(0.765789584674387,0.,0.64309121592837));
#1003=DIRECTION('ref_axis',(-0.64309121592837,0.,0.765789584674387));
#1004=DIRECTION('',(0.,-1.,0.));
#1005=DIRECTION('',(-0.64309121592837,0.,0.765789584674387));
#1006=DIRECTION('center_axis',(0.958728714360711,0.,0.284322444172559));
#1007=DIRECTION('ref_axis',(-0.284322444172559,0.,0.958728714360711));
#1008=DIRECTION('',(0.,-1.,0.));
#1009=DIRECTION('',(-0.284322444172559,0.,0.958728714360711));
#1010=DIRECTION('',(-0.284322444172559,0.,0.958728714360711));
#1011=DIRECTION('center_axis',(-0.203925731320321,0.,-0.978986361552332));
#1012=DIRECTION('ref_axis',(0.978986361552331,0.,-0.203925731320321));
#1013=DIRECTION('',(0.978986361552331,0.,-0.203925731320321));
#1014=DIRECTION('center_axis',(-0.154153467311877,-0.984807753012208,-0.0799399657416228));
#1015=DIRECTION('ref_axis',(0.,0.0809070545486087,-0.996721650474328));
#1016=DIRECTION('center_axis',(-0.433012701892217,0.5,0.750000000000001));
#1017=DIRECTION('ref_axis',(0.86602540378444,0.,0.499999999999997));
#1018=DIRECTION('',(-0.250000000000011,-0.866025403784439,0.433012701892213));
#1019=DIRECTION('',(-0.86602540378444,0.,-0.499999999999997));
#1020=DIRECTION('',(0.755928946018457,0.654653670707975,0.));
#1021=DIRECTION('',(0.249999999999993,0.866025403784439,-0.433012701892223));
#1022=DIRECTION('',(0.86602540378444,0.,0.499999999999997));
#1023=DIRECTION('',(0.23035440972766,0.865803995139891,-0.444207482961312));
#1024=DIRECTION('',(0.86602540378444,0.,0.499999999999997));
#1025=DIRECTION('',(-0.145150425761458,-0.85986978047047,0.48944388292728));
#1026=DIRECTION('',(0.86602540378444,0.,0.499999999999997));
#1027=DIRECTION('center_axis',(-0.499999999999997,0.,0.86602540378444));
#1028=DIRECTION('ref_axis',(-0.86602540378444,0.,-0.499999999999997));
#1029=DIRECTION('',(0.,-1.,0.));
#1030=DIRECTION('',(-0.86602540378444,0.,-0.499999999999997));
#1031=DIRECTION('',(0.,-1.,0.));
#1032=DIRECTION('center_axis',(0.,-1.,0.));
#1033=DIRECTION('ref_axis',(1.,0.,0.));
#1034=DIRECTION('',(-0.460355915136369,0.,0.887734437429886));
#1035=DIRECTION('',(0.126336660261238,0.,0.991987423445498));
#1036=DIRECTION('center_axis',(-0.866025403784426,0.,-0.500000000000022));
#1037=DIRECTION('ref_axis',(0.500000000000022,0.,-0.866025403784426));
#1038=DIRECTION('',(0.500000000000022,0.,-0.866025403784426));
#1039=DIRECTION('',(0.500000000000022,0.,-0.866025403784426));
#1040=DIRECTION('',(0.,-1.,0.));
#1041=DIRECTION('center_axis',(0.5,0.,-0.866025403784439));
#1042=DIRECTION('ref_axis',(0.866025403784439,0.,0.5));
#1043=DIRECTION('',(0.866025403784439,0.,0.5));
#1044=DIRECTION('',(0.866025403784439,0.,0.5));
#1045=DIRECTION('',(0.,-1.,0.));
#1046=DIRECTION('center_axis',(0.866025403784447,0.,0.499999999999986));
#1047=DIRECTION('ref_axis',(-0.499999999999986,0.,0.866025403784447));
#1048=DIRECTION('',(-0.499999999999986,0.,0.866025403784447));
#1049=DIRECTION('',(-0.499999999999986,0.,0.866025403784447));
#1050=DIRECTION('',(0.,-1.,0.));
#1051=DIRECTION('center_axis',(0.,-1.,0.));
#1052=DIRECTION('ref_axis',(0.,0.,-1.));
#1053=DIRECTION('',(-0.28432244417256,0.,0.958728714360711));
#1054=DIRECTION('',(0.64309121592837,0.,-0.765789584674388));
#1055=DIRECTION('',(0.126336660261238,0.,0.991987423445498));
#1056=DIRECTION('',(-0.460355915136369,0.,0.887734437429886));
#1057=DIRECTION('center_axis',(0.,-1.,0.));
#1058=DIRECTION('ref_axis',(1.,0.,0.));
#1059=DIRECTION('',(1.,3.70074341541719E-17,0.));
#1060=DIRECTION('',(0.,0.,1.));
#1061=DIRECTION('',(1.,3.70074341541719E-17,0.));
#1062=DIRECTION('center_axis',(0.,-1.,0.));
#1063=DIRECTION('ref_axis',(1.,0.,0.));
#1064=DIRECTION('',(-1.,-3.70074341541719E-17,0.));
#1065=DIRECTION('',(0.,0.,1.));
#1066=DIRECTION('center_axis',(-0.958728714360711,0.,-0.28432244417256));
#1067=DIRECTION('ref_axis',(0.28432244417256,0.,-0.958728714360711));
#1068=DIRECTION('',(0.,-1.,0.));
#1069=DIRECTION('center_axis',(-0.765789584674388,0.,-0.64309121592837));
#1070=DIRECTION('ref_axis',(0.64309121592837,0.,-0.765789584674388));
#1071=DIRECTION('',(0.,-1.,0.));
#1072=DIRECTION('center_axis',(0.991987423445497,0.,-0.126336660261238));
#1073=DIRECTION('ref_axis',(0.126336660261238,0.,0.991987423445498));
#1074=DIRECTION('',(0.,-1.,0.));
#1075=DIRECTION('center_axis',(0.887734437429886,0.,0.460355915136369));
#1076=DIRECTION('ref_axis',(-0.460355915136369,0.,0.887734437429886));
#1077=DIRECTION('center_axis',(-1.,3.0740041691415E-15,0.));
#1078=DIRECTION('ref_axis',(-3.0740041691415E-15,-1.,0.));
#1079=DIRECTION('',(3.0740041691415E-15,1.,0.));
#1080=DIRECTION('',(-3.0740041691415E-15,-1.,0.));
#1081=DIRECTION('',(0.,0.,1.));
#1082=DIRECTION('center_axis',(0.,0.,1.));
#1083=DIRECTION('ref_axis',(1.,0.,0.));
#1084=DIRECTION('center_axis',(0.,0.,1.));
#1085=DIRECTION('ref_axis',(1.,0.,0.));
#1086=DIRECTION('center_axis',(0.,0.,1.));
#1087=DIRECTION('ref_axis',(1.,0.,0.));
#1088=DIRECTION('',(0.,0.,1.));
#1089=DIRECTION('center_axis',(1.,0.,0.));
#1090=DIRECTION('ref_axis',(0.,1.,0.));
#1091=DIRECTION('',(0.,-1.,0.));
#1092=DIRECTION('',(0.,1.,0.));
#1093=DIRECTION('',(0.,0.,1.));
#1094=DIRECTION('center_axis',(0.,0.,1.));
#1095=DIRECTION('ref_axis',(1.,0.,0.));
#1096=DIRECTION('center_axis',(0.,0.,1.));
#1097=DIRECTION('ref_axis',(1.,0.,0.));
#1098=DIRECTION('center_axis',(0.,0.,-1.));
#1099=DIRECTION('ref_axis',(1.,0.,0.));
#1100=DIRECTION('',(0.,0.,1.));
#1101=DIRECTION('center_axis',(1.,0.,0.));
#1102=DIRECTION('ref_axis',(0.,1.,0.));
#1103=DIRECTION('',(0.,1.,0.));
#1104=DIRECTION('',(0.,1.,0.));
#1105=DIRECTION('',(0.,0.,1.));
#1106=DIRECTION('center_axis',(0.,0.,1.));
#1107=DIRECTION('ref_axis',(1.,0.,0.));
#1108=DIRECTION('center_axis',(0.,0.,1.));
#1109=DIRECTION('ref_axis',(1.,0.,0.));
#1110=DIRECTION('center_axis',(0.,0.,-1.));
#1111=DIRECTION('ref_axis',(1.,0.,0.));
#1112=DIRECTION('',(0.,0.,1.));
#1113=DIRECTION('center_axis',(-1.,0.,0.));
#1114=DIRECTION('ref_axis',(0.,-1.,0.));
#1115=DIRECTION('',(0.,1.,0.));
#1116=DIRECTION('',(0.,-1.,0.));
#1117=DIRECTION('',(0.,0.,1.));
#1118=DIRECTION('center_axis',(0.,0.,1.));
#1119=DIRECTION('ref_axis',(1.,0.,0.));
#1120=DIRECTION('center_axis',(0.,0.,1.));
#1121=DIRECTION('ref_axis',(1.,0.,0.));
#1122=DIRECTION('center_axis',(0.,0.,-1.));
#1123=DIRECTION('ref_axis',(1.,0.,0.));
#1124=DIRECTION('',(0.,0.,1.));
#1125=DIRECTION('center_axis',(-1.,0.,0.));
#1126=DIRECTION('ref_axis',(0.,-1.,0.));
#1127=DIRECTION('',(0.,1.,0.));
#1128=DIRECTION('',(0.,-1.,0.));
#1129=DIRECTION('',(0.,0.,1.));
#1130=DIRECTION('center_axis',(0.,0.,1.));
#1131=DIRECTION('ref_axis',(1.,0.,0.));
#1132=DIRECTION('center_axis',(0.,0.,1.));
#1133=DIRECTION('ref_axis',(1.,0.,0.));
#1134=DIRECTION('center_axis',(0.,0.,1.));
#1135=DIRECTION('ref_axis',(1.,0.,0.));
#1136=DIRECTION('',(0.,0.,1.));
#1137=DIRECTION('center_axis',(1.,-9.73710020532791E-16,0.));
#1138=DIRECTION('ref_axis',(9.73710020532791E-16,1.,0.));
#1139=DIRECTION('',(-9.73710020532791E-16,-1.,0.));
#1140=DIRECTION('',(9.73710020532791E-16,1.,0.));
#1141=DIRECTION('center_axis',(0.,0.,1.));
#1142=DIRECTION('ref_axis',(1.,0.,0.));
#1143=DIRECTION('center_axis',(0.,0.,1.));
#1144=DIRECTION('ref_axis',(1.,0.,0.));
#1145=CARTESIAN_POINT('',(0.,0.,0.));
#1146=CARTESIAN_POINT('Origin',(6.96174178762712,-15.,18.5417214536328));
#1147=CARTESIAN_POINT('',(-34.9481411569981,-15.,81.3440037393712));
#1148=CARTESIAN_POINT('',(-40.8866573646006,-13.7630323319992,90.2429160012131));
#1149=CARTESIAN_POINT('',(-14.4195870261138,-19.2760105122218,50.5818073106839));
#1150=CARTESIAN_POINT('',(6.96174178762712,-15.,18.5417214536328));
#1151=CARTESIAN_POINT('',(-1.97625189224429,-15.,31.9353738027243));
#1152=CARTESIAN_POINT('',(6.96174178762712,-13.,18.5417214536328));
#1153=CARTESIAN_POINT('',(6.96174178762712,-15.,18.5417214536328));
#1154=CARTESIAN_POINT('',(-39.1807523232511,-13.,87.6866041618065));
#1155=CARTESIAN_POINT('',(-1.97625189224429,-13.,31.9353738027243));
#1156=CARTESIAN_POINT('',(-41.0005511639692,-13.,90.4135867365142));
#1157=CARTESIAN_POINT('',(-4.66748311926031,-13.,35.9682045180611));
#1158=CARTESIAN_POINT('',(-39.4146302084124,-23.624888903464,88.0370719735084));
#1159=CARTESIAN_POINT('Origin',(-7.82021847568037,-13.,59.0513082005923));
#1160=CARTESIAN_POINT('',(19.462537179993,-13.,24.8647499541117));
#1161=CARTESIAN_POINT('',(7.99940393652778,-13.,18.2465068902404));
#1162=CARTESIAN_POINT('',(16.2810796727023,-13.,23.0279346058619));
#1163=CARTESIAN_POINT('',(24.2032897642761,-13.,13.6365063375879));
#1164=CARTESIAN_POINT('',(4.35227184480207,-13.,19.2841148527491));
#1165=CARTESIAN_POINT('',(17.9734541523929,-13.,34.643368121719));
#1166=CARTESIAN_POINT('',(15.305095298043,-13.,43.6410125438079));
#1167=CARTESIAN_POINT('',(-39.4019509435064,-13.,102.965694023007));
#1168=CARTESIAN_POINT('',(5.05896467179107,-13.,50.0218732088316));
#1169=CARTESIAN_POINT('',(-42.5902250366747,-13.,77.9315685650426));
#1170=CARTESIAN_POINT('',(-37.8898954022095,-13.,97.8223306286373));
#1171=CARTESIAN_POINT('',(-37.8898954022095,-13.,97.8223306286373));
#1172=CARTESIAN_POINT('',(17.3248843846121,-13.,32.0728658038098));
#1173=CARTESIAN_POINT('',(-37.8898954022095,-13.,97.8223306286373));
#1174=CARTESIAN_POINT('',(17.3248843846121,-13.,32.0728658038098));
#1175=CARTESIAN_POINT('Origin',(26.0798820716422,-15.,13.1026164011847));
#1176=CARTESIAN_POINT('',(24.0982799754954,-13.5227883704817,13.6663815903179));
#1177=CARTESIAN_POINT('',(14.5547499805723,-15.,16.3815129494584));
#1178=CARTESIAN_POINT('',(16.6851294648988,-14.6702455641457,15.7754206389778));
#1179=CARTESIAN_POINT('',(24.3072096896019,-12.4826374850146,13.6069411506768));
#1180=CARTESIAN_POINT('',(6.69881188071801,-13.,18.6165249315791));
#1181=CARTESIAN_POINT('',(6.69881188071801,-15.,18.6165249315791));
#1182=CARTESIAN_POINT('Origin',(-5.65224655703234,-15.,48.8405189630724));
#1183=CARTESIAN_POINT('',(-35.1892844112215,-15.,79.4505622399389));
#1184=CARTESIAN_POINT('',(-35.3090652128017,-15.,78.5100510020123));
#1185=CARTESIAN_POINT('',(1.09490037816432,-15.,9.48139422769422));
#1186=CARTESIAN_POINT('',(-26.3794058288602,-15.,62.4618968399921));
#1187=CARTESIAN_POINT('',(17.6220208125745,-15.,6.03874655294828));
#1188=CARTESIAN_POINT('',(-10.1562131476286,-15.,11.8250341843093));
#1189=CARTESIAN_POINT('',(8.66409075818018,-15.,36.2446797826526));
#1190=CARTESIAN_POINT('Origin',(-39.2770149065837,-14.2946920771661,79.0153976430573));
#1191=CARTESIAN_POINT('',(-42.4248884169583,-13.7630323319992,78.1648235841985));
#1192=CARTESIAN_POINT('',(-40.6455653946831,-13.7630323319992,92.1359548195362));
#1193=CARTESIAN_POINT('',(-35.1892844112215,-15.,79.4505622399389));
#1194=CARTESIAN_POINT('Origin',(-41.134023847433,-10.9704711792609,92.1981634807936));
#1195=CARTESIAN_POINT('',(-40.,-8.1779100265225,105.));
#1196=CARTESIAN_POINT('',(-39.3073175441431,-13.7630323319992,102.643791851508));
#1197=CARTESIAN_POINT('',(-43.440638046006,-8.1779100265225,77.9843288305353));
#1198=CARTESIAN_POINT('',(-41.6224823001828,-8.1779100265225,92.2603721420511));
#1199=CARTESIAN_POINT('',(-42.4248884169583,-13.7630323319992,78.1648235841985));
#1200=CARTESIAN_POINT('Origin',(12.6800536037879,-14.2613941852408,37.4356615013245));
#1201=CARTESIAN_POINT('',(29.640623097449,-13.5227883704817,-5.02227139773674));
#1202=CARTESIAN_POINT('',(17.6220208125745,-15.,6.03874655294828));
#1203=CARTESIAN_POINT('',(16.6960164493957,-13.5227883704817,38.6266432199964));
#1204=CARTESIAN_POINT('Origin',(-11.010425760622,-14.2613941852408,7.72421526081177));
#1205=CARTESIAN_POINT('',(-3.59845010226068,-13.7630323319992,3.29326173081395));
#1206=CARTESIAN_POINT('',(4.94093534196465,-16.0136513179793,14.5523502628113));
#1207=CARTESIAN_POINT('',(-2.84282776086344,-13.5227883704817,1.74412671794831));
#1208=CARTESIAN_POINT('',(-20.9524482844182,-19.2805945360759,38.8714662442957));
#1209=CARTESIAN_POINT('',(-11.8646383736153,-13.5227883704817,3.62339633731422));
#1210=CARTESIAN_POINT('Origin',(15.1061558582734,-10.9704711792609,38.6142011789342));
#1211=CARTESIAN_POINT('',(18.7383336842146,-8.17791002652253,35.054706016214));
#1212=CARTESIAN_POINT('',(18.3775163215741,-10.45263920185,34.8606651926972));
#1213=CARTESIAN_POINT('',(15.4832336183551,-8.17791002652253,38.9308617866044));
#1214=CARTESIAN_POINT('Origin',(21.9958206875721,-9.3287181803823,23.3568435291363));
#1215=CARTESIAN_POINT('',(32.1361449319413,-3.6574363607646,-7.3189620738551));
#1216=CARTESIAN_POINT('',(29.2669502805036,-15.,-4.67837103079326));
#1217=CARTESIAN_POINT('',(20.0236192113432,-3.6574363607646,33.5241948762245));
#1218=CARTESIAN_POINT('',(22.9545494019328,-3.6574363607646,23.6411659733089));
#1219=CARTESIAN_POINT('',(19.9034285168291,-4.08015867261834,33.6673173132193));
#1220=CARTESIAN_POINT('Origin',(-8.94232282789381,-9.3287181803823,2.25926796866971));
#1221=CARTESIAN_POINT('',(-3.47334941364769,-8.1779100265225,0.912790650920232));
#1222=CARTESIAN_POINT('',(-2.90737539423074,-12.9756235804777,1.65902135253765));
#1223=CARTESIAN_POINT('',(-3.,-3.65743636076459,0.));
#1224=CARTESIAN_POINT('',(-4.29797003748081,-16.05301392821,2.50296056407258));
#1225=CARTESIAN_POINT('',(-9.14624855921413,-3.65743636076459,1.28028160711737));
#1226=CARTESIAN_POINT('Origin',(-38.0238358088542,-10.9704711792609,68.6083702119039));
#1227=CARTESIAN_POINT('',(-37.5867119305557,-13.7630323319992,68.8350512490895));
#1228=CARTESIAN_POINT('',(-38.4609596871526,-8.1779100265225,68.3816891747182));
#1229=CARTESIAN_POINT('Origin',(-43.440638046006,-3.,77.9843288305353));
#1230=CARTESIAN_POINT('',(-43.440638046006,-3.,77.9843288305353));
#1231=CARTESIAN_POINT('',(-43.440638046006,-3.,77.9843288305353));
#1232=CARTESIAN_POINT('',(-3.,-3.,0.));
#1233=CARTESIAN_POINT('',(-43.440638046006,-3.,77.9843288305353));
#1234=CARTESIAN_POINT('',(-3.,-3.,0.));
#1235=CARTESIAN_POINT('Origin',(-40.,-3.,105.));
#1236=CARTESIAN_POINT('',(-40.,-3.,105.));
#1237=CARTESIAN_POINT('',(-40.,-3.,105.));
#1238=CARTESIAN_POINT('',(-40.,-3.,105.));
#1239=CARTESIAN_POINT('Origin',(20.0236192113432,-3.,33.5241948762245));
#1240=CARTESIAN_POINT('',(20.0236192113432,-3.,33.5241948762245));
#1241=CARTESIAN_POINT('',(20.0236192113432,-3.,33.5241948762245));
#1242=CARTESIAN_POINT('',(20.0236192113432,-3.,33.5241948762245));
#1243=CARTESIAN_POINT('Origin',(32.1361449319413,-3.,-7.3189620738551));
#1244=CARTESIAN_POINT('',(32.1361449319413,-3.,-7.3189620738551));
#1245=CARTESIAN_POINT('',(32.1361449319413,-3.,-7.3189620738551));
#1246=CARTESIAN_POINT('',(27.,-3.,10.));
#1247=CARTESIAN_POINT('',(32.1361449319413,-3.,-7.3189620738551));
#1248=CARTESIAN_POINT('',(32.1361449319413,-3.,-7.3189620738551));
#1249=CARTESIAN_POINT('Origin',(-3.,-3.,0.));
#1250=CARTESIAN_POINT('',(-3.,-3.,0.));
#1251=CARTESIAN_POINT('Origin',(-29.9303435785797,-14.2946920771661,60.6204731794466));
#1252=CARTESIAN_POINT('Origin',(16.3901000762447,-7.,20.4242108985276));
#1253=CARTESIAN_POINT('',(18.0131304802713,-5.,20.027934605862));
#1254=CARTESIAN_POINT('',(18.5904807494609,-3.,19.027934605862));
#1255=CARTESIAN_POINT('',(16.9744553456764,-8.59807621135332,21.8269727115386));
#1256=CARTESIAN_POINT('',(2.9536393246985,-3.,10.));
#1257=CARTESIAN_POINT('',(17.5448006146239,-3.,18.4242108985276));
#1258=CARTESIAN_POINT('',(0.708750456796013,-4.94413078827644,10.));
#1259=CARTESIAN_POINT('',(10.3103378923975,3.37108784761189,10.));
#1260=CARTESIAN_POINT('',(0.692622404582004,-5.,10.0279346058618));
#1261=CARTESIAN_POINT('',(0.403947269987187,-6.00000000000005,10.5279346058618));
#1262=CARTESIAN_POINT('',(-3.55046192388146,-5.,7.57818872662914));
#1263=CARTESIAN_POINT('',(14.2266525598267,-5.,17.8418105592128));
#1264=CARTESIAN_POINT('',(-5.14681221346708,-11.,10.6565354572159));
#1265=CARTESIAN_POINT('',(-3.87849279611475,-6.23292816510255,8.21075212431111));
#1266=CARTESIAN_POINT('',(19.462537179993,-11.,24.8647499541117));
#1267=CARTESIAN_POINT('',(15.2353995378654,-11.,22.4242108985276));
#1268=CARTESIAN_POINT('',(20.4753679298913,-5.,21.4495080602089));
#1269=CARTESIAN_POINT('',(20.0582067358103,-7.4712590575845,22.8561659709004));
#1270=CARTESIAN_POINT('',(14.2266525598267,-5.,17.8418105592128));
#1271=CARTESIAN_POINT('Origin',(19.4625371799931,-3.,24.8647499541116));
#1272=CARTESIAN_POINT('',(-5.14681221346708,-13.,10.6565354572159));
#1273=CARTESIAN_POINT('',(-5.14681221346708,-3.,10.6565354572159));
#1274=CARTESIAN_POINT('',(16.2810796727023,-13.,23.0279346058619));
#1275=CARTESIAN_POINT('',(19.462537179993,-3.,24.8647499541117));
#1276=CARTESIAN_POINT('Origin',(-5.65224655703234,-13.,48.8405189630724));
#1277=CARTESIAN_POINT('',(-40.3463804329617,-13.,78.5341663590619));
#1278=CARTESIAN_POINT('',(-0.992920087497144,-13.,2.64631343476182));
#1279=CARTESIAN_POINT('',(-37.8898954022095,-13.,97.8223306286373));
#1280=CARTESIAN_POINT('Origin',(10.281079672702,-3.,33.4202394512751));
#1281=CARTESIAN_POINT('',(10.281079672702,-3.,33.4202394512751));
#1282=CARTESIAN_POINT('',(4.95082544631666,-3.,42.6525105886327));
#1283=CARTESIAN_POINT('',(10.281079672702,-5.,33.4202394512751));
#1284=CARTESIAN_POINT('',(10.281079672702,-5.,33.4202394512751));
#1285=CARTESIAN_POINT('',(10.281079672702,-3.,33.4202394512751));
#1286=CARTESIAN_POINT('Origin',(-7.03942840298662,-3.,23.4202394512751));
#1287=CARTESIAN_POINT('',(-7.03942840298662,-3.,23.4202394512751));
#1288=CARTESIAN_POINT('',(-7.03942840298662,-3.,23.4202394512751));
#1289=CARTESIAN_POINT('',(-7.03942840298662,-5.,23.4202394512751));
#1290=CARTESIAN_POINT('',(-7.03942840298662,-5.,23.4202394512751));
#1291=CARTESIAN_POINT('',(-7.03942840298662,-3.,23.4202394512751));
#1292=CARTESIAN_POINT('Origin',(-1.03942840298683,-3.,13.0279346058618));
#1293=CARTESIAN_POINT('',(0.708750456796015,-3.,10.));
#1294=CARTESIAN_POINT('',(-9.36968262937175,-3.,27.4563581659264));
#1295=CARTESIAN_POINT('',(-11.137291199554,-5.,30.5179460173763));
#1296=CARTESIAN_POINT('',(0.708750456796009,0.88540864149498,10.));
#1297=CARTESIAN_POINT('Origin',(-10.4419216264844,-5.,54.2394330429266));
#1298=CARTESIAN_POINT('',(17.3248843846121,-5.,32.0728658038098));
#1299=CARTESIAN_POINT('',(13.1813893388983,-5.,46.0446353899145));
#1300=CARTESIAN_POINT('',(-37.8898954022095,-5.,97.8223306286373));
#1301=CARTESIAN_POINT('',(-21.482426291487,-5.,78.2844040567129));
#1302=CARTESIAN_POINT('',(-40.3463804329617,-5.,78.5341663590619));
#1303=CARTESIAN_POINT('',(-41.6300897932271,-5.,68.4545620849795));
#1304=CARTESIAN_POINT('',(-14.613496216479,-5.,28.9117617319796));
#1305=CARTESIAN_POINT('Origin',(-5.65224655703234,-3.,48.8405189630724));
#1306=CARTESIAN_POINT('',(-3.,-3.,10.));
#1307=CARTESIAN_POINT('',(27.,-3.,10.));
#1308=CARTESIAN_POINT('',(-3.,-3.,0.));
#1309=CARTESIAN_POINT('',(27.,-3.,10.));
#1310=CARTESIAN_POINT('Origin',(-5.65224655703234,-3.,48.8405189630724));
#1311=CARTESIAN_POINT('',(27.,-3.,0.));
#1312=CARTESIAN_POINT('',(27.,-3.,0.));
#1313=CARTESIAN_POINT('',(27.,-3.,0.));
#1314=CARTESIAN_POINT('Origin',(17.3248843846121,-3.,32.0728658038098));
#1315=CARTESIAN_POINT('',(17.3248843846121,-3.,32.0728658038098));
#1316=CARTESIAN_POINT('Origin',(-37.8898954022095,-3.,97.8223306286373));
#1317=CARTESIAN_POINT('',(-37.8898954022095,-3.,97.8223306286373));
#1318=CARTESIAN_POINT('Origin',(-40.3463804329617,-3.,78.5341663590619));
#1319=CARTESIAN_POINT('',(-40.3463804329617,-3.,78.5341663590619));
#1320=CARTESIAN_POINT('Origin',(-5.14681221346708,-3.,10.6565354572159));
#1321=CARTESIAN_POINT('Origin',(-2.99999999999999,9.73324163210528,0.));
#1322=CARTESIAN_POINT('',(-2.99999999999999,9.73324163210528,0.));
#1323=CARTESIAN_POINT('',(-3.,6.12159062730129,0.));
#1324=CARTESIAN_POINT('',(-2.99999999999999,9.73324163210528,10.));
#1325=CARTESIAN_POINT('',(-3.,6.12159062730129,10.));
#1326=CARTESIAN_POINT('',(-2.99999999999999,9.73324163210528,0.));
#1327=CARTESIAN_POINT('Origin',(12.,-14.5000000000001,0.));
#1328=CARTESIAN_POINT('',(3.,12.5416345659799,0.));
#1329=CARTESIAN_POINT('Origin',(12.,-14.5000000000001,0.));
#1330=CARTESIAN_POINT('',(3.,12.5416345659799,10.));
#1331=CARTESIAN_POINT('Origin',(12.,-14.5000000000001,10.));
#1332=CARTESIAN_POINT('',(3.,12.5416345659799,0.));
#1333=CARTESIAN_POINT('Origin',(3.,9.35896058088029,0.));
#1334=CARTESIAN_POINT('',(3.,9.35896058088029,0.));
#1335=CARTESIAN_POINT('',(3.,16.0000002384186,0.));
#1336=CARTESIAN_POINT('',(3.,9.35896058088029,10.));
#1337=CARTESIAN_POINT('',(3.,16.0000002384186,10.));
#1338=CARTESIAN_POINT('',(3.,9.35896058088029,0.));
#1339=CARTESIAN_POINT('Origin',(12.,-14.5000000000001,0.));
#1340=CARTESIAN_POINT('',(-2.22044604925031E-15,7.99999999999999,0.));
#1341=CARTESIAN_POINT('Origin',(12.,-14.5000000000001,0.));
#1342=CARTESIAN_POINT('',(0.,7.99999999999999,10.));
#1343=CARTESIAN_POINT('Origin',(12.,-14.5000000000001,10.));
#1344=CARTESIAN_POINT('',(-2.22044604925031E-15,7.99999999999999,0.));
#1345=CARTESIAN_POINT('Origin',(0.,2.50454583026496,0.));
#1346=CARTESIAN_POINT('',(2.22044604925031E-15,2.50454583026496,0.));
#1347=CARTESIAN_POINT('',(0.,0.,0.));
#1348=CARTESIAN_POINT('',(0.,2.50454583026496,10.));
#1349=CARTESIAN_POINT('',(0.,0.,10.));
#1350=CARTESIAN_POINT('',(2.22044604925031E-15,2.50454583026496,0.));
#1351=CARTESIAN_POINT('Origin',(12.,30.,0.));
#1352=CARTESIAN_POINT('',(24.,2.50454583026496,0.));
#1353=CARTESIAN_POINT('Origin',(12.,30.,0.));
#1354=CARTESIAN_POINT('',(24.,2.50454583026496,10.));
#1355=CARTESIAN_POINT('Origin',(12.,30.,10.));
#1356=CARTESIAN_POINT('',(24.,2.50454583026496,0.));
#1357=CARTESIAN_POINT('Origin',(24.,8.,0.));
#1358=CARTESIAN_POINT('',(24.,8.,0.));
#1359=CARTESIAN_POINT('',(24.,2.93915231795365E-15,0.));
#1360=CARTESIAN_POINT('',(24.,8.,10.));
#1361=CARTESIAN_POINT('',(24.,2.93915231795365E-15,10.));
#1362=CARTESIAN_POINT('',(24.,8.,0.));
#1363=CARTESIAN_POINT('Origin',(12.,-14.5000000000001,0.));
#1364=CARTESIAN_POINT('',(21.,9.3589605808803,0.));
#1365=CARTESIAN_POINT('Origin',(12.,-14.5000000000001,0.));
#1366=CARTESIAN_POINT('',(21.,9.3589605808803,10.));
#1367=CARTESIAN_POINT('Origin',(12.,-14.5000000000001,10.));
#1368=CARTESIAN_POINT('',(21.,9.3589605808803,0.));
#1369=CARTESIAN_POINT('Origin',(21.,12.5416345659799,0.));
#1370=CARTESIAN_POINT('',(21.,12.5416345659799,0.));
#1371=CARTESIAN_POINT('',(21.,1.34711146902533E-15,0.));
#1372=CARTESIAN_POINT('',(21.,12.5416345659799,10.));
#1373=CARTESIAN_POINT('',(21.,1.34711146902533E-15,10.));
#1374=CARTESIAN_POINT('',(21.,12.5416345659799,0.));
#1375=CARTESIAN_POINT('Origin',(12.,-14.5000000000001,0.));
#1376=CARTESIAN_POINT('',(27.,9.73324163210527,0.));
#1377=CARTESIAN_POINT('Origin',(12.,-14.5000000000001,0.));
#1378=CARTESIAN_POINT('',(27.,9.73324163210527,10.));
#1379=CARTESIAN_POINT('Origin',(12.,-14.5000000000001,10.));
#1380=CARTESIAN_POINT('',(27.,9.73324163210527,0.));
#1381=CARTESIAN_POINT('Origin',(27.,-3.,0.));
#1382=CARTESIAN_POINT('',(27.,6.12159062730129,0.));
#1383=CARTESIAN_POINT('',(27.,6.12159062730129,10.));
#1384=CARTESIAN_POINT('Origin',(12.,4.77081728298996,10.));
#1385=CARTESIAN_POINT('Origin',(12.,4.77081728298996,0.));
#1386=UNCERTAINTY_MEASURE_WITH_UNIT(LENGTH_MEASURE(0.01),#1390,
'DISTANCE_ACCURACY_VALUE',
'Maximum model space distance between geometric entities at asserted c
onnectivities');
#1387=UNCERTAINTY_MEASURE_WITH_UNIT(LENGTH_MEASURE(0.01),#1390,
'DISTANCE_ACCURACY_VALUE',
'Maximum model space distance between geometric entities at asserted c
onnectivities');
#1388=(
GEOMETRIC_REPRESENTATION_CONTEXT(3)
GLOBAL_UNCERTAINTY_ASSIGNED_CONTEXT((#1386))
GLOBAL_UNIT_ASSIGNED_CONTEXT((#1390,#1392,#1393))
REPRESENTATION_CONTEXT('','3D')
);
#1389=(
GEOMETRIC_REPRESENTATION_CONTEXT(3)
GLOBAL_UNCERTAINTY_ASSIGNED_CONTEXT((#1387))
GLOBAL_UNIT_ASSIGNED_CONTEXT((#1390,#1392,#1393))
REPRESENTATION_CONTEXT('','3D')
);
#1390=(
LENGTH_UNIT()
NAMED_UNIT(*)
SI_UNIT(.MILLI.,.METRE.)
);
#1391=(
LENGTH_UNIT()
NAMED_UNIT(*)
SI_UNIT($,.METRE.)
);
#1392=(
NAMED_UNIT(*)
PLANE_ANGLE_UNIT()
SI_UNIT($,.RADIAN.)
);
#1393=(
NAMED_UNIT(*)
SI_UNIT($,.STERADIAN.)
SOLID_ANGLE_UNIT()
);
#1394=SHAPE_DEFINITION_REPRESENTATION(#1395,#1396);
#1395=PRODUCT_DEFINITION_SHAPE('',$,#1398);
#1396=SHAPE_REPRESENTATION('',(#870),#1388);
#1397=PRODUCT_DEFINITION_CONTEXT('part definition',#1402,'design');
#1398=PRODUCT_DEFINITION('Right Ear','Right Ear v9',#1399,#1397);
#1399=PRODUCT_DEFINITION_FORMATION('',$,#1404);
#1400=PRODUCT_RELATED_PRODUCT_CATEGORY('Right Ear v9','Right Ear v9',(#1404));
#1401=APPLICATION_PROTOCOL_DEFINITION('international standard',
'automotive_design',2009,#1402);
#1402=APPLICATION_CONTEXT(
'Core Data for Automotive Mechanical Design Process');
#1403=PRODUCT_CONTEXT('part definition',#1402,'mechanical');
#1404=PRODUCT('Right Ear','Right Ear v9',$,(#1403));
#1405=PRESENTATION_STYLE_ASSIGNMENT((#1407));
#1406=PRESENTATION_STYLE_ASSIGNMENT((#1408));
#1407=SURFACE_STYLE_USAGE(.BOTH.,#1409);
#1408=SURFACE_STYLE_USAGE(.BOTH.,#1410);
#1409=SURFACE_SIDE_STYLE('',(#1411));
#1410=SURFACE_SIDE_STYLE('',(#1412));
#1411=SURFACE_STYLE_FILL_AREA(#1413);
#1412=SURFACE_STYLE_FILL_AREA(#1414);
#1413=FILL_AREA_STYLE('Steel - Satin',(#1415));
#1414=FILL_AREA_STYLE('ABS (White)',(#1416));
#1415=FILL_AREA_STYLE_COLOUR('Steel - Satin',#1417);
#1416=FILL_AREA_STYLE_COLOUR('ABS (White)',#1418);
#1417=COLOUR_RGB('Steel - Satin',0.627450980392157,0.627450980392157,0.627450980392157);
#1418=COLOUR_RGB('ABS (White)',0.964705882352941,0.964705882352941,0.952941176470588);
ENDSEC;
END-ISO-10303-21;
